<svg width="264" height="266" viewBox="0 0 264 266" fill="none" xmlns="http://www.w3.org/2000/svg">
<path d="M113.458 105.655C114.045 106.464 113.866 107.596 113.057 108.183C112.248 108.771 111.116 108.592 110.529 107.783C109.941 106.974 110.12 105.842 110.929 105.254C111.738 104.667 112.87 104.846 113.458 105.655Z" fill="#242323"/>
<path d="M100.839 121.876C101.79 122.185 102.31 123.206 102.001 124.157C101.692 125.107 100.671 125.628 99.7202 125.319C98.7694 125.01 98.249 123.989 98.558 123.038C98.8669 122.087 99.8881 121.567 100.839 121.876Z" fill="#242323"/>
<path d="M100.165 142.416C101.115 142.107 102.137 142.627 102.445 143.578C102.754 144.529 102.234 145.55 101.283 145.859C100.333 146.168 99.3113 145.647 99.0024 144.697C98.6934 143.746 99.2138 142.725 100.165 142.416Z" fill="#242323"/>
<path d="M111.692 159.429C112.28 158.62 113.412 158.441 114.22 159.029C115.029 159.616 115.209 160.748 114.621 161.557C114.033 162.366 112.901 162.545 112.093 161.958C111.284 161.37 111.104 160.238 111.692 159.429Z" fill="#242323"/>
<path d="M131.018 166.418C131.018 165.418 131.829 164.607 132.828 164.607C133.828 164.607 134.639 165.418 134.639 166.418C134.639 167.417 133.828 168.228 132.828 168.228C131.829 168.228 131.018 167.417 131.018 166.418Z" fill="#242323"/>
<path d="M150.761 160.712C150.174 159.903 150.353 158.771 151.162 158.183C151.971 157.596 153.103 157.775 153.69 158.584C154.278 159.393 154.099 160.525 153.29 161.112C152.481 161.7 151.349 161.521 150.761 160.712Z" fill="#242323"/>
<path d="M163.38 144.491C162.429 144.182 161.909 143.161 162.218 142.21C162.527 141.259 163.548 140.739 164.499 141.048C165.45 141.357 165.97 142.378 165.661 143.329C165.352 144.28 164.331 144.8 163.38 144.491Z" fill="#242323"/>
<path d="M164.054 123.951C163.104 124.26 162.082 123.74 161.773 122.789C161.465 121.838 161.985 120.817 162.936 120.508C163.886 120.199 164.908 120.72 165.217 121.67C165.526 122.621 165.005 123.642 164.054 123.951Z" fill="#242323"/>
<path d="M152.527 106.938C151.939 107.746 150.807 107.926 149.998 107.338C149.19 106.75 149.01 105.618 149.598 104.81C150.186 104.001 151.318 103.822 152.126 104.409C152.935 104.997 153.114 106.129 152.527 106.938Z" fill="#242323"/>
<path d="M133.201 99.9491C133.201 100.949 132.39 101.759 131.39 101.759C130.391 101.759 129.58 100.949 129.58 99.9491C129.58 98.9493 130.391 98.1389 131.39 98.1389C132.39 98.1389 133.201 98.9493 133.201 99.9491Z" fill="#242323"/>
<path d="M103.322 101.67C104.574 102.817 104.659 104.762 103.512 106.014C102.365 107.265 100.42 107.351 99.1678 106.203C97.9159 105.056 97.8308 103.112 98.9779 101.86C100.125 100.608 102.07 100.523 103.322 101.67Z" fill="#242323"/>
<path d="M90.2964 124.61C91.9835 124.802 93.1954 126.325 93.0033 128.012C92.8112 129.699 91.2878 130.911 89.6008 130.719C87.9137 130.527 86.7018 129.003 86.8939 127.316C87.086 125.629 88.6094 124.417 90.2964 124.61Z" fill="#242323"/>
<path d="M93.2424 150.824C94.7201 149.988 96.596 150.508 97.4322 151.986C98.2684 153.464 97.7483 155.34 96.2705 156.176C94.7928 157.012 92.9169 156.492 92.0807 155.014C91.2445 153.537 91.7646 151.661 93.2424 150.824Z" fill="#242323"/>
<path d="M111.034 170.301C111.738 168.755 113.561 168.074 115.107 168.778C116.652 169.482 117.334 171.305 116.63 172.85C115.926 174.395 114.102 175.077 112.557 174.373C111.012 173.669 110.33 171.846 111.034 170.301Z" fill="#242323"/>
<path d="M136.876 175.6C136.537 173.936 137.612 172.312 139.276 171.974C140.939 171.635 142.563 172.709 142.901 174.373C143.24 176.037 142.166 177.66 140.502 177.999C138.838 178.338 137.215 177.263 136.876 175.6Z" fill="#242323"/>
<path d="M160.897 164.697C159.645 163.55 159.56 161.605 160.707 160.353C161.854 159.101 163.799 159.016 165.051 160.164C166.303 161.311 166.388 163.255 165.241 164.507C164.094 165.759 162.149 165.844 160.897 164.697Z" fill="#242323"/>
<path d="M173.922 141.758C172.235 141.565 171.024 140.042 171.216 138.355C171.408 136.668 172.931 135.456 174.618 135.648C176.305 135.84 177.517 137.364 177.325 139.051C177.133 140.738 175.61 141.95 173.922 141.758Z" fill="#242323"/>
<path d="M170.977 115.543C169.499 116.379 167.623 115.859 166.787 114.382C165.951 112.904 166.471 111.028 167.948 110.192C169.426 109.355 171.302 109.876 172.138 111.353C172.974 112.831 172.454 114.707 170.977 115.543Z" fill="#242323"/>
<path d="M153.185 96.0665C152.481 97.6117 150.657 98.2935 149.112 97.5895C147.567 96.8854 146.885 95.0621 147.589 93.517C148.293 91.9719 150.117 91.2901 151.662 91.9941C153.207 92.6981 153.889 94.5214 153.185 96.0665Z" fill="#242323"/>
<path d="M127.343 90.7675C127.681 92.4314 126.607 94.0547 124.943 94.3933C123.279 94.732 121.656 93.6577 121.318 91.9938C120.979 90.33 122.053 88.7066 123.717 88.368C125.381 88.0294 127.004 89.1037 127.343 90.7675Z" fill="#242323"/>
<path d="M90.3531 103.101C92.413 104.23 93.1679 106.815 92.0391 108.875C90.9104 110.935 88.3255 111.69 86.2656 110.561C84.2057 109.432 83.4508 106.847 84.5796 104.787C85.7083 102.728 88.2932 101.973 90.3531 103.101Z" fill="#242323"/>
<path d="M80.6463 133.39C82.9762 133.093 85.1063 134.74 85.4039 137.07C85.7015 139.4 84.054 141.53 81.724 141.828C79.394 142.126 77.264 140.478 76.9664 138.148C76.6688 135.818 78.3163 133.688 80.6463 133.39Z" fill="#242323"/>
<path d="M90.5967 163.601C92.3068 161.99 94.9984 162.071 96.6087 163.781C98.219 165.491 98.1382 168.183 96.4281 169.793C94.7181 171.404 92.0264 171.323 90.4161 169.613C88.8058 167.903 88.8867 165.211 90.5967 163.601Z" fill="#242323"/>
<path d="M116.403 182.192C116.84 179.884 119.065 178.367 121.373 178.804C123.681 179.241 125.198 181.466 124.761 183.774C124.324 186.082 122.099 187.599 119.791 187.162C117.483 186.725 115.966 184.5 116.403 182.192Z" fill="#242323"/>
<path d="M148.209 182.064C147.206 179.94 148.115 177.405 150.239 176.402C152.363 175.399 154.898 176.308 155.901 178.432C156.904 180.556 155.995 183.09 153.871 184.093C151.747 185.097 149.212 184.188 148.209 182.064Z" fill="#242323"/>
<path d="M173.866 163.265C171.806 162.137 171.051 159.552 172.18 157.492C173.309 155.432 175.894 154.677 177.953 155.806C180.013 156.934 180.768 159.519 179.639 161.579C178.511 163.639 175.926 164.394 173.866 163.265Z" fill="#242323"/>
<path d="M183.573 132.976C181.243 133.274 179.113 131.626 178.815 129.296C178.518 126.967 180.165 124.836 182.495 124.539C184.825 124.241 186.955 125.889 187.253 128.219C187.55 130.549 185.903 132.679 183.573 132.976Z" fill="#242323"/>
<path d="M173.623 102.767C171.913 104.377 169.221 104.296 167.611 102.586C166 100.876 166.081 98.1846 167.791 96.5743C169.501 94.964 172.193 95.0449 173.803 96.7549C175.414 98.465 175.333 101.157 173.623 102.767Z" fill="#242323"/>
<path d="M147.816 84.1752C147.379 86.4831 145.154 87.9998 142.846 87.5629C140.538 87.1259 139.021 84.9008 139.458 82.5929C139.895 80.285 142.12 78.7683 144.428 79.2053C146.736 79.6422 148.253 81.8674 147.816 84.1752Z" fill="#242323"/>
<path d="M116.01 84.303C117.013 86.427 116.104 88.9619 113.98 89.965C111.856 90.968 109.321 90.0593 108.318 87.9354C107.315 85.8114 108.224 83.2765 110.348 82.2734C112.472 81.2704 115.007 82.1791 116.01 84.303Z" fill="#242323"/>
<path d="M76.2394 108.888C79.2894 109.672 81.1264 112.78 80.3424 115.83C79.5585 118.88 76.4505 120.717 73.4005 119.933C70.3505 119.149 68.5135 116.041 69.2974 112.991C70.0814 109.941 73.1894 108.104 76.2394 108.888Z" fill="#242323"/>
<path d="M72.6295 146.368C75.5578 145.209 78.8708 146.644 80.0293 149.572C81.1878 152.501 79.7531 155.814 76.8248 156.972C73.8965 158.131 70.5835 156.696 69.425 153.768C68.2665 150.839 69.7012 147.526 72.6295 146.368Z" fill="#242323"/>
<path d="M91.7392 178.812C93.4273 176.153 96.9509 175.367 99.6093 177.055C102.268 178.743 103.054 182.266 101.366 184.925C99.6783 187.583 96.1547 188.37 93.4962 186.682C90.8378 184.994 90.0511 181.47 91.7392 178.812Z" fill="#242323"/>
<path d="M126.268 193.827C126.072 190.684 128.46 187.976 131.603 187.779C134.746 187.582 137.453 189.97 137.65 193.113C137.847 196.256 135.459 198.964 132.316 199.161C129.173 199.358 126.465 196.97 126.268 193.827Z" fill="#242323"/>
<path d="M163.029 185.678C161.022 183.251 161.363 179.657 163.79 177.65C166.217 175.643 169.811 175.984 171.818 178.411C173.825 180.838 173.484 184.432 171.057 186.439C168.63 188.446 165.036 188.105 163.029 185.678Z" fill="#242323"/>
<path d="M187.98 157.478C184.93 156.694 183.093 153.586 183.876 150.536C184.66 147.486 187.768 145.649 190.818 146.433C193.868 147.217 195.705 150.325 194.921 153.375C194.138 156.425 191.029 158.262 187.98 157.478Z" fill="#242323"/>
<path d="M191.589 119.999C188.661 121.157 185.348 119.723 184.19 116.794C183.031 113.866 184.466 110.553 187.394 109.395C190.322 108.236 193.635 109.671 194.794 112.599C195.952 115.527 194.518 118.84 191.589 119.999Z" fill="#242323"/>
<path d="M172.48 87.5556C170.792 90.2141 167.269 91.0007 164.61 89.3127C161.952 87.6246 161.165 84.101 162.853 81.4426C164.541 78.7841 168.065 77.9975 170.723 79.6855C173.382 81.3736 174.168 84.8972 172.48 87.5556Z" fill="#242323"/>
<path d="M137.951 72.5405C138.148 75.6835 135.759 78.391 132.616 78.5879C129.473 78.7848 126.766 76.3966 126.569 73.2536C126.372 70.1106 128.76 67.4031 131.903 67.2062C135.046 67.0093 137.754 69.3975 137.951 72.5405Z" fill="#242323"/>
<path d="M101.19 80.6889C103.197 83.1159 102.856 86.7101 100.429 88.7168C98.002 90.7235 94.4078 90.3828 92.4011 87.9558C90.3944 85.5289 90.7351 81.9347 93.1621 79.928C95.589 77.9213 99.1832 78.262 101.19 80.6889Z" fill="#242323"/>
<path d="M63.2851 119.501C67.2977 119.521 70.5342 122.79 70.5141 126.802C70.494 130.815 67.2249 134.051 63.2124 134.031C59.1998 134.011 55.9633 130.742 55.9834 126.73C56.0035 122.717 59.2726 119.48 63.2851 119.501Z" fill="#242323"/>
<path d="M68.3869 162.567C71.6449 160.225 76.1849 160.968 78.5272 164.226C80.8694 167.484 80.1271 172.024 76.869 174.366C73.611 176.708 69.0711 175.966 66.7288 172.708C64.3865 169.45 65.1289 164.91 68.3869 162.567Z" fill="#242323"/>
<path d="M97.8291 194.411C99.0881 190.602 103.197 188.534 107.007 189.793C110.817 191.052 112.885 195.161 111.626 198.971C110.367 202.781 106.258 204.849 102.448 203.59C98.638 202.331 96.57 198.221 97.8291 194.411Z" fill="#242323"/>
<path d="M140.364 202.867C139.144 199.045 141.252 194.957 145.075 193.736C148.897 192.515 152.986 194.624 154.206 198.446C155.427 202.269 153.318 206.357 149.496 207.578C145.674 208.799 141.585 206.69 140.364 202.867Z" fill="#242323"/>
<path d="M179.747 184.707C176.513 182.332 175.816 177.785 178.19 174.551C180.565 171.316 185.112 170.619 188.347 172.994C191.581 175.369 192.278 179.916 189.903 183.15C187.529 186.385 182.981 187.082 179.747 184.707Z" fill="#242323"/>
<path d="M200.934 146.866C196.921 146.846 193.685 143.577 193.705 139.565C193.725 135.552 196.994 132.315 201.007 132.336C205.019 132.356 208.256 135.625 208.236 139.637C208.215 143.65 204.946 146.886 200.934 146.866Z" fill="#242323"/>
<path d="M195.832 103.799C192.574 106.141 188.034 105.399 185.692 102.141C183.35 98.8828 184.092 94.3429 187.35 92.0006C190.608 89.6583 195.148 90.4007 197.49 93.6587C199.832 96.9167 199.09 101.457 195.832 103.799Z" fill="#242323"/>
<path d="M166.391 71.956C165.132 75.7659 161.022 77.8338 157.213 76.5748C153.403 75.3157 151.335 71.2065 152.594 67.3965C153.853 63.5866 157.962 61.5187 161.772 62.7777C165.582 64.0368 167.65 68.146 166.391 71.956Z" fill="#242323"/>
<path d="M123.855 63.4995C125.076 67.3219 122.967 71.4103 119.144 72.6311C115.322 73.8519 111.234 71.743 110.013 67.9206C108.792 64.0982 110.901 60.0099 114.723 58.7891C118.546 57.5682 122.634 59.6772 123.855 63.4995Z" fill="#242323"/>
<path d="M84.4721 81.6602C87.7065 84.035 88.4034 88.5821 86.0287 91.8166C83.6539 95.051 79.1067 95.7479 75.8723 93.3731C72.6379 90.9983 71.941 86.4512 74.3158 83.2168C76.6906 79.9823 81.2377 79.2855 84.4721 81.6602Z" fill="#242323"/>
<path d="M52.1531 133.88C56.9368 132.785 61.7028 135.775 62.7982 140.558C63.8937 145.342 60.9038 150.108 56.1202 151.203C51.3365 152.299 46.5705 149.309 45.475 144.525C44.3796 139.742 47.3694 134.976 52.1531 133.88Z" fill="#242323"/>
<path d="M67.8331 180.744C71.0593 177.046 76.6725 176.664 80.3705 179.89C84.0685 183.116 84.451 188.729 81.2249 192.427C77.9987 196.125 72.3855 196.508 68.6875 193.281C64.9895 190.055 64.6069 184.442 67.8331 180.744Z" fill="#242323"/>
<path d="M108.065 209.442C108.502 204.554 112.818 200.945 117.706 201.382C122.594 201.818 126.203 206.134 125.766 211.022C125.33 215.91 121.014 219.519 116.126 219.083C111.238 218.646 107.629 214.33 108.065 209.442Z" fill="#242323"/>
<path d="M157.48 209.011C154.96 204.8 156.331 199.343 160.542 196.823C164.753 194.303 170.21 195.674 172.73 199.885C175.25 204.096 173.879 209.552 169.668 212.073C165.457 214.593 160 213.222 157.48 209.011Z" fill="#242323"/>
<path d="M197.205 179.617C192.691 177.691 190.593 172.471 192.518 167.957C194.444 163.443 199.664 161.344 204.178 163.27C208.692 165.196 210.79 170.416 208.865 174.93C206.939 179.444 201.719 181.542 197.205 179.617Z" fill="#242323"/>
<path d="M212.066 132.486C207.282 133.582 202.516 130.592 201.42 125.808C200.325 121.025 203.315 116.259 208.099 115.163C212.882 114.068 217.648 117.057 218.744 121.841C219.839 126.625 216.849 131.391 212.066 132.486Z" fill="#242323"/>
<path d="M196.386 85.6221C193.159 89.3201 187.546 89.7026 183.848 86.4765C180.15 83.2503 179.768 77.6371 182.994 73.9391C186.22 70.241 191.833 69.8585 195.531 73.0847C199.229 76.3109 199.612 81.9241 196.386 85.6221Z" fill="#242323"/>
<path d="M156.155 56.9253C155.718 61.8134 151.402 65.4222 146.514 64.9858C141.626 64.5494 138.017 60.2331 138.453 55.345C138.89 50.457 143.206 46.8482 148.094 47.2846C152.982 47.7209 156.591 52.0373 156.155 56.9253Z" fill="#242323"/>
<path d="M106.739 57.356C109.259 61.5671 107.888 67.0237 103.677 69.5438C99.4662 72.0639 94.0095 70.6931 91.4894 66.4821C88.9693 62.2711 90.3401 56.8144 94.5511 54.2943C98.7621 51.7742 104.219 53.145 106.739 57.356Z" fill="#242323"/>
<path d="M67.0141 86.7506C71.528 88.6761 73.6264 93.8964 71.7009 98.4104C69.7754 102.924 64.5551 105.023 60.0411 103.097C55.5272 101.172 53.4288 95.9514 55.3543 91.4374C57.2798 86.9235 62.5001 84.8251 67.0141 86.7506Z" fill="#242323"/>
<path d="M44.335 155.298C49.3016 152.816 55.3401 154.83 57.8222 159.797C60.3044 164.763 58.2903 170.802 53.3237 173.284C48.3571 175.766 42.3186 173.752 39.8365 168.785C37.3543 163.819 39.3684 157.78 44.335 155.298Z" fill="#242323"/>
<path d="M74.0577 202.627C76.6168 197.699 82.6858 195.78 87.6132 198.339C92.5407 200.898 94.4606 206.967 91.9015 211.894C89.3424 216.822 83.2733 218.742 78.3459 216.182C73.4185 213.623 71.4986 207.554 74.0577 202.627Z" fill="#242323"/>
<path d="M125.926 223.427C125.1 217.936 128.882 212.815 134.372 211.99C139.863 211.164 144.983 214.945 145.809 220.436C146.635 225.926 142.854 231.047 137.363 231.873C131.872 232.699 126.752 228.917 125.926 223.427Z" fill="#242323"/>
<path d="M180.113 209.827C176.217 205.87 176.267 199.505 180.223 195.61C184.18 191.714 190.545 191.764 194.441 195.72C198.336 199.677 198.286 206.042 194.33 209.937C190.373 213.833 184.008 213.783 180.113 209.827Z" fill="#242323"/>
<path d="M215.97 166.923C210.493 166.012 206.791 160.833 207.702 155.356C208.614 149.879 213.792 146.178 219.269 147.089C224.746 148 228.448 153.179 227.537 158.656C226.625 164.133 221.447 167.835 215.97 166.923Z" fill="#242323"/>
<path d="M219.73 111.179C214.763 113.661 208.725 111.647 206.243 106.68C203.761 101.713 205.775 95.675 210.741 93.1929C215.708 90.7107 221.746 92.7247 224.229 97.6914C226.711 102.658 224.697 108.696 219.73 111.179Z" fill="#242323"/>
<path d="M190.022 63.8388C187.463 68.7662 181.394 70.6861 176.467 68.127C171.539 65.5679 169.619 59.4988 172.179 54.5714C174.738 49.644 180.807 47.7241 185.734 50.2832C190.662 52.8423 192.581 58.9113 190.022 63.8388Z" fill="#242323"/>
<path d="M138.161 43.011C138.986 48.5015 135.205 53.6221 129.714 54.448C124.224 55.2739 119.103 51.4924 118.277 46.0019C117.451 40.5113 121.233 35.3907 126.724 34.5648C132.214 33.7389 137.335 37.5204 138.161 43.011Z" fill="#242323"/>
<path d="M83.9528 56.6499C87.8482 60.6064 87.7987 66.9717 83.8422 70.8672C79.8857 74.7626 73.5204 74.7131 69.625 70.7566C65.7295 66.8001 65.779 60.4348 69.7355 56.5394C73.692 52.6439 80.0573 52.6934 83.9528 56.6499Z" fill="#242323"/>
<path d="M48.1396 99.5227C53.6166 100.434 57.318 105.613 56.4068 111.09C55.4956 116.567 50.3169 120.268 44.8399 119.357C39.3628 118.446 35.6614 113.267 36.5726 107.79C37.4838 102.313 42.6625 98.6115 48.1396 99.5227Z" fill="#242323"/>
<path d="M43.1724 180.416C47.8092 176.531 54.7174 177.141 58.6022 181.778C62.4871 186.415 61.8774 193.323 57.2406 197.208C52.6037 201.093 45.6956 200.483 41.8107 195.846C37.9259 191.209 38.5355 184.301 43.1724 180.416Z" fill="#242323"/>
<path d="M87.8774 223.634C89.3452 217.766 95.2924 214.198 101.161 215.666C107.029 217.134 110.596 223.081 109.129 228.949C107.661 234.818 101.714 238.385 95.8452 236.917C89.9768 235.449 86.4095 229.502 87.8774 223.634Z" fill="#242323"/>
<path d="M149.445 232.297C147.183 226.686 149.897 220.305 155.508 218.043C161.118 215.781 167.5 218.496 169.762 224.106C172.023 229.716 169.309 236.098 163.699 238.36C158.088 240.622 151.707 237.907 149.445 232.297Z" fill="#242323"/>
<path d="M204.36 203.181C199.232 199.971 197.677 193.213 200.886 188.085C204.096 182.958 210.854 181.403 215.982 184.612C221.109 187.822 222.664 194.58 219.455 199.708C216.246 204.835 209.487 206.39 204.36 203.181Z" fill="#242323"/>
<path d="M231.674 147.292C225.64 147.71 220.409 143.156 219.992 137.121C219.574 131.087 224.128 125.856 230.163 125.439C236.197 125.021 241.428 129.575 241.845 135.61C242.263 141.645 237.709 146.875 231.674 147.292Z" fill="#242323"/>
<path d="M220.899 86.0727C216.262 89.9576 209.354 89.3479 205.469 84.7111C201.584 80.0742 202.194 73.1661 206.83 69.2812C211.467 65.3964 218.376 66.006 222.26 70.6429C226.145 75.2797 225.536 82.1879 220.899 86.0727Z" fill="#242323"/>
<path d="M176.206 42.8417C174.739 48.71 168.791 52.2774 162.923 50.8095C157.055 49.3417 153.487 43.3945 154.955 37.5261C156.423 31.6578 162.37 28.0905 168.239 29.5583C174.107 31.0262 177.674 36.9733 176.206 42.8417Z" fill="#242323"/>
<path d="M114.639 34.1467C116.901 39.757 114.186 46.1387 108.576 48.4005C102.965 50.6624 96.5838 47.9478 94.322 42.3374C92.0601 36.7271 94.7747 30.3454 100.385 28.0836C105.995 25.8217 112.377 28.5363 114.639 34.1467Z" fill="#242323"/>
<path d="M59.7114 63.3086C64.8389 66.518 66.3938 73.2764 63.1844 78.404C59.975 83.5315 53.2165 85.0865 48.089 81.8771C42.9614 78.6676 41.4065 71.9092 44.6159 66.7816C47.8254 61.6541 54.5838 60.0991 59.7114 63.3086Z" fill="#242323"/>
<path d="M32.4361 119.155C38.4708 118.737 43.7013 123.291 44.1187 129.326C44.5361 135.36 39.9824 140.591 33.9477 141.008C27.913 141.426 22.6825 136.872 22.265 130.837C21.8476 124.803 26.4014 119.572 32.4361 119.155Z" fill="#242323"/>
<path d="M48.239 207.337C52.1952 202.084 59.6608 201.032 64.9139 204.989C70.167 208.945 71.2183 216.41 67.2621 221.663C63.3058 226.917 55.8402 227.968 50.5872 224.012C45.3341 220.055 44.2828 212.59 48.239 207.337Z" fill="#242323"/>
<path d="M107.796 242.437C107.909 235.861 113.331 230.623 119.906 230.736C126.481 230.849 131.72 236.271 131.607 242.846C131.494 249.421 126.072 254.66 119.497 254.547C112.922 254.434 107.683 249.012 107.796 242.437Z" fill="#242323"/>
<path d="M176.601 235.801C172.827 230.415 174.135 222.99 179.52 219.217C184.906 215.443 192.331 216.751 196.105 222.136C199.878 227.522 198.571 234.947 193.185 238.721C187.799 242.494 180.374 241.187 176.601 235.801Z" fill="#242323"/>
<path d="M228.396 190.056C222.178 187.917 218.871 181.141 221.01 174.923C223.149 168.704 229.925 165.398 236.143 167.537C242.362 169.676 245.669 176.451 243.529 182.67C241.39 188.888 234.615 192.195 228.396 190.056Z" fill="#242323"/>
<path d="M243.399 122.543C237.111 124.468 230.453 120.93 228.529 114.642C226.604 108.353 230.142 101.695 236.43 99.7711C242.719 97.8467 249.376 101.384 251.301 107.673C253.225 113.961 249.688 120.619 243.399 122.543Z" fill="#242323"/>
<path d="M215.841 59.1656C211.885 64.4186 204.419 65.47 199.166 61.5137C193.913 57.5575 192.862 50.0919 196.818 44.8388C200.774 39.5858 208.24 38.5344 213.493 42.4907C218.746 46.4469 219.797 53.9125 215.841 59.1656Z" fill="#242323"/>
<path d="M156.295 24.0479C156.182 30.6231 150.76 35.8618 144.185 35.7489C137.609 35.6359 132.371 30.214 132.484 23.6388C132.597 17.0636 138.019 11.8249 144.594 11.9379C151.169 12.0508 156.408 17.4727 156.295 24.0479Z" fill="#242323"/>
<path d="M87.4814 30.6486C91.2549 36.0345 89.9477 43.4596 84.5619 47.233C79.176 51.0064 71.7509 49.6993 67.9775 44.3134C64.204 38.9275 65.5112 31.5024 70.897 27.729C76.2829 23.9556 83.708 25.2627 87.4814 30.6486Z" fill="#242323"/>
<path d="M35.6838 76.4465C41.9023 78.5858 45.2092 85.3612 43.0699 91.5797C40.9306 97.7982 34.1552 101.105 27.9367 98.9657C21.7182 96.8264 18.4114 90.0511 20.5507 83.8326C22.69 77.6141 29.4653 74.3072 35.6838 76.4465Z" fill="#242323"/>
<path d="M20.7127 143.904C27.0011 141.98 33.6588 145.517 35.5832 151.806C37.5077 158.094 33.97 164.752 27.6817 166.676C21.3934 168.6 14.7356 165.063 12.8112 158.774C10.8868 152.486 14.4244 145.828 20.7127 143.904Z" fill="#242323"/>
<path d="M61.2122 233.063C64.1191 226.48 71.8115 223.501 78.3937 226.408C84.9759 229.315 87.9554 237.007 85.0486 243.589C82.1417 250.171 74.4493 253.151 67.8671 250.244C61.2849 247.337 58.3054 239.645 61.2122 233.063Z" fill="#242323"/>
<path d="M133.409 255.627C131.892 248.593 136.364 241.661 143.397 240.144C150.431 238.627 157.363 243.099 158.88 250.132C160.398 257.166 155.926 264.098 148.892 265.615C141.858 267.133 134.926 262.661 133.409 255.627Z" fill="#242323"/>
<path d="M205.065 231.421C199.703 226.622 199.246 218.386 204.045 213.024C208.844 207.662 217.08 207.205 222.442 212.004C227.804 216.803 228.26 225.039 223.462 230.401C218.663 235.763 210.427 236.219 205.065 231.421Z" fill="#242323"/>
<path d="M248.857 169.782C241.699 169.051 236.488 162.656 237.218 155.497C237.949 148.339 244.344 143.128 251.503 143.859C258.661 144.59 263.872 150.985 263.141 158.143C262.41 165.301 256.015 170.512 248.857 169.782Z" fill="#242323"/>
<path d="M248.027 94.1132C241.807 97.7298 233.832 95.6187 230.216 89.3981C226.599 83.1775 228.71 75.2029 234.931 71.5864C241.151 67.9699 249.126 70.0809 252.743 76.3015C256.359 82.5221 254.248 90.4967 248.027 94.1132Z" fill="#242323"/>
<path d="M202.881 33.4511C199.974 40.0334 192.282 43.0128 185.7 40.106C179.117 37.1992 176.138 29.5068 179.045 22.9245C181.952 16.3423 189.644 13.3628 196.226 16.2697C202.808 19.1765 205.788 26.8689 202.881 33.4511Z" fill="#242323"/>
<path d="M130.691 10.8655C132.208 17.8992 127.736 24.8311 120.702 26.3484C113.669 27.8656 106.737 23.3936 105.22 16.3599C103.702 9.32619 108.174 2.39426 115.208 0.87702C122.242 -0.640224 129.174 3.83176 130.691 10.8655Z" fill="#242323"/>
<path d="M59.0177 35.0366C64.3795 39.8352 64.8361 48.0719 60.0375 53.4336C55.2389 58.7954 47.0023 59.252 41.6405 54.4534C36.2787 49.6548 35.8221 41.4182 40.6207 36.0564C45.4193 30.6946 53.6559 30.2381 59.0177 35.0366Z" fill="#242323"/>
<path d="M15.2362 96.7328C22.3945 97.4634 27.6052 103.859 26.8747 111.017C26.1441 118.175 19.7489 123.386 12.5906 122.655C5.4323 121.925 0.221565 115.53 0.95212 108.371C1.68268 101.213 8.07787 96.0023 15.2362 96.7328Z" fill="#242323"/>
<path d="M16.086 172.334C22.3067 168.717 30.2812 170.828 33.8978 177.049C37.5143 183.27 35.4033 191.244 29.1826 194.861C22.962 198.477 14.9875 196.366 11.3709 190.146C7.75441 183.925 9.86544 175.95 16.086 172.334Z" fill="#242323"/>
</svg>
