<svg width="509" height="407" viewBox="0 0 509 407" fill="none" xmlns="http://www.w3.org/2000/svg">
<g filter="url(#filter0_d_12887_21344)">
<path d="M242.812 190.663C243.29 191.321 243.144 192.242 242.486 192.72C241.828 193.198 240.907 193.052 240.429 192.394C239.951 191.736 240.097 190.815 240.755 190.337C241.413 189.859 242.334 190.005 242.812 190.663Z" fill="#D7F99D"/>
<path d="M232.546 203.86C233.319 204.111 233.742 204.942 233.491 205.716C233.24 206.489 232.409 206.913 231.635 206.661C230.862 206.41 230.438 205.579 230.69 204.805C230.941 204.032 231.772 203.609 232.546 203.86Z" fill="#D7F99D"/>
<path d="M231.997 220.571C232.77 220.32 233.601 220.743 233.853 221.517C234.104 222.29 233.681 223.121 232.907 223.373C232.134 223.624 231.303 223.201 231.051 222.427C230.8 221.653 231.223 220.823 231.997 220.571Z" fill="#D7F99D"/>
<path d="M241.376 234.413C241.854 233.755 242.775 233.609 243.433 234.087C244.091 234.565 244.237 235.486 243.759 236.144C243.28 236.802 242.359 236.948 241.701 236.47C241.043 235.992 240.897 235.071 241.376 234.413Z" fill="#D7F99D"/>
<path d="M257.099 240.099C257.099 239.286 257.759 238.626 258.572 238.626C259.385 238.626 260.045 239.286 260.045 240.099C260.045 240.912 259.385 241.572 258.572 241.572C257.759 241.572 257.099 240.912 257.099 240.099Z" fill="#D7F99D"/>
<path d="M273.162 235.457C272.684 234.799 272.83 233.878 273.488 233.4C274.146 232.922 275.067 233.067 275.545 233.726C276.023 234.384 275.877 235.305 275.219 235.783C274.561 236.261 273.64 236.115 273.162 235.457Z" fill="#D7F99D"/>
<path d="M283.429 222.26C282.655 222.008 282.232 221.178 282.483 220.404C282.734 219.63 283.565 219.207 284.339 219.458C285.112 219.71 285.536 220.541 285.284 221.314C285.033 222.088 284.202 222.511 283.429 222.26Z" fill="#D7F99D"/>
<path d="M283.977 205.549C283.204 205.8 282.373 205.377 282.121 204.603C281.87 203.83 282.293 202.999 283.067 202.747C283.841 202.496 284.671 202.919 284.923 203.693C285.174 204.466 284.751 205.297 283.977 205.549Z" fill="#D7F99D"/>
<path d="M274.598 191.706C274.12 192.364 273.199 192.51 272.541 192.032C271.883 191.554 271.737 190.633 272.216 189.975C272.694 189.317 273.615 189.171 274.273 189.649C274.931 190.127 275.077 191.048 274.598 191.706Z" fill="#D7F99D"/>
<path d="M258.875 186.021C258.875 186.834 258.215 187.493 257.402 187.493C256.589 187.493 255.929 186.834 255.929 186.021C255.929 185.207 256.589 184.548 257.402 184.548C258.215 184.548 258.875 185.207 258.875 186.021Z" fill="#D7F99D"/>
<path d="M234.565 187.421C235.584 188.354 235.653 189.936 234.72 190.955C233.787 191.973 232.205 192.042 231.186 191.109C230.167 190.176 230.098 188.594 231.031 187.575C231.965 186.557 233.547 186.487 234.565 187.421Z" fill="#D7F99D"/>
<path d="M223.968 206.084C225.341 206.241 226.327 207.48 226.171 208.852C226.014 210.225 224.775 211.211 223.402 211.055C222.03 210.898 221.044 209.659 221.2 208.286C221.356 206.914 222.596 205.928 223.968 206.084Z" fill="#D7F99D"/>
<path d="M226.365 227.412C227.567 226.732 229.094 227.155 229.774 228.358C230.454 229.56 230.031 231.086 228.829 231.766C227.626 232.447 226.1 232.024 225.42 230.821C224.74 229.619 225.163 228.093 226.365 227.412Z" fill="#D7F99D"/>
<path d="M240.84 243.258C241.413 242.001 242.897 241.446 244.154 242.019C245.411 242.592 245.965 244.075 245.393 245.332C244.82 246.589 243.336 247.144 242.079 246.571C240.822 245.999 240.268 244.515 240.84 243.258Z" fill="#D7F99D"/>
<path d="M261.865 247.569C261.59 246.216 262.464 244.895 263.817 244.619C265.171 244.344 266.492 245.218 266.767 246.572C267.043 247.925 266.169 249.246 264.815 249.522C263.461 249.797 262.141 248.923 261.865 247.569Z" fill="#D7F99D"/>
<path d="M281.409 238.699C280.39 237.766 280.321 236.184 281.254 235.165C282.187 234.147 283.77 234.077 284.788 235.011C285.807 235.944 285.876 237.526 284.943 238.545C284.009 239.563 282.427 239.632 281.409 238.699Z" fill="#D7F99D"/>
<path d="M292.006 220.036C290.633 219.879 289.647 218.64 289.804 217.267C289.96 215.895 291.199 214.909 292.572 215.065C293.944 215.221 294.93 216.461 294.774 217.833C294.618 219.206 293.378 220.192 292.006 220.036Z" fill="#D7F99D"/>
<path d="M289.609 198.708C288.407 199.388 286.881 198.965 286.2 197.763C285.52 196.56 285.943 195.034 287.145 194.354C288.348 193.674 289.874 194.097 290.554 195.299C291.235 196.501 290.811 198.028 289.609 198.708Z" fill="#D7F99D"/>
<path d="M275.134 182.862C274.561 184.119 273.077 184.674 271.82 184.101C270.563 183.528 270.009 182.045 270.581 180.788C271.154 179.53 272.638 178.976 273.895 179.549C275.152 180.121 275.707 181.605 275.134 182.862Z" fill="#D7F99D"/>
<path d="M254.109 178.551C254.384 179.904 253.51 181.225 252.157 181.501C250.803 181.776 249.482 180.902 249.207 179.548C248.931 178.195 249.805 176.874 251.159 176.598C252.513 176.323 253.833 177.197 254.109 178.551Z" fill="#D7F99D"/>
<path d="M224.014 188.585C225.69 189.504 226.304 191.607 225.386 193.283C224.468 194.959 222.365 195.573 220.689 194.654C219.013 193.736 218.399 191.633 219.317 189.957C220.235 188.281 222.338 187.667 224.014 188.585Z" fill="#D7F99D"/>
<path d="M216.117 213.228C218.013 212.986 219.746 214.327 219.988 216.222C220.23 218.118 218.889 219.851 216.994 220.093C215.098 220.335 213.365 218.995 213.123 217.099C212.881 215.203 214.221 213.47 216.117 213.228Z" fill="#D7F99D"/>
<path d="M224.213 237.807C225.604 236.497 227.794 236.563 229.104 237.954C230.414 239.345 230.348 241.535 228.957 242.845C227.566 244.156 225.376 244.09 224.066 242.698C222.756 241.307 222.821 239.117 224.213 237.807Z" fill="#D7F99D"/>
<path d="M245.209 252.933C245.564 251.055 247.375 249.821 249.252 250.177C251.13 250.532 252.364 252.343 252.008 254.22C251.653 256.098 249.843 257.332 247.965 256.976C246.087 256.621 244.853 254.811 245.209 252.933Z" fill="#D7F99D"/>
<path d="M271.086 252.829C270.27 251.101 271.009 249.038 272.737 248.222C274.465 247.406 276.528 248.145 277.344 249.873C278.16 251.601 277.42 253.664 275.692 254.48C273.964 255.296 271.902 254.557 271.086 252.829Z" fill="#D7F99D"/>
<path d="M291.96 237.534C290.284 236.616 289.67 234.513 290.588 232.837C291.506 231.161 293.609 230.547 295.285 231.465C296.961 232.384 297.575 234.487 296.657 236.163C295.739 237.838 293.636 238.453 291.96 237.534Z" fill="#D7F99D"/>
<path d="M299.857 212.891C297.962 213.134 296.229 211.793 295.986 209.897C295.744 208.002 297.085 206.269 298.98 206.027C300.876 205.785 302.609 207.125 302.851 209.021C303.093 210.916 301.753 212.649 299.857 212.891Z" fill="#D7F99D"/>
<path d="M291.762 188.313C290.371 189.623 288.181 189.558 286.871 188.166C285.56 186.775 285.626 184.585 287.017 183.275C288.409 181.965 290.599 182.031 291.909 183.422C293.219 184.813 293.153 187.003 291.762 188.313Z" fill="#D7F99D"/>
<path d="M270.766 173.187C270.41 175.065 268.6 176.299 266.722 175.943C264.844 175.588 263.61 173.777 263.966 171.9C264.321 170.022 266.132 168.788 268.009 169.144C269.887 169.499 271.121 171.309 270.766 173.187Z" fill="#D7F99D"/>
<path d="M244.888 173.291C245.704 175.019 244.965 177.082 243.237 177.898C241.509 178.714 239.447 177.974 238.631 176.246C237.814 174.518 238.554 172.456 240.282 171.64C242.01 170.824 244.072 171.563 244.888 173.291Z" fill="#D7F99D"/>
<path d="M212.532 193.293C215.013 193.931 216.508 196.46 215.87 198.941C215.232 201.423 212.703 202.917 210.222 202.28C207.74 201.642 206.246 199.113 206.884 196.632C207.521 194.15 210.05 192.656 212.532 193.293Z" fill="#D7F99D"/>
<path d="M209.595 223.787C211.977 222.844 214.672 224.011 215.615 226.394C216.558 228.776 215.39 231.472 213.008 232.414C210.625 233.357 207.93 232.189 206.987 229.807C206.045 227.425 207.212 224.729 209.595 223.787Z" fill="#D7F99D"/>
<path d="M225.142 250.183C226.515 248.02 229.382 247.38 231.545 248.753C233.708 250.127 234.348 252.993 232.975 255.156C231.601 257.319 228.734 257.959 226.572 256.586C224.409 255.212 223.769 252.346 225.142 250.183Z" fill="#D7F99D"/>
<path d="M253.235 262.399C253.075 259.842 255.018 257.639 257.575 257.479C260.132 257.318 262.335 259.261 262.495 261.818C262.655 264.376 260.712 266.578 258.155 266.739C255.598 266.899 253.395 264.956 253.235 262.399Z" fill="#D7F99D"/>
<path d="M283.143 255.769C281.51 253.794 281.788 250.87 283.762 249.238C285.737 247.605 288.661 247.882 290.294 249.857C291.926 251.831 291.649 254.755 289.674 256.388C287.7 258.021 284.776 257.744 283.143 255.769Z" fill="#D7F99D"/>
<path d="M303.443 232.826C300.961 232.188 299.466 229.66 300.104 227.178C300.742 224.697 303.271 223.202 305.752 223.84C308.234 224.478 309.728 227.006 309.09 229.488C308.453 231.969 305.924 233.464 303.443 232.826Z" fill="#D7F99D"/>
<path d="M306.38 202.333C303.997 203.275 301.302 202.108 300.359 199.726C299.417 197.343 300.584 194.648 302.966 193.705C305.349 192.763 308.044 193.93 308.987 196.312C309.929 198.695 308.762 201.39 306.38 202.333Z" fill="#D7F99D"/>
<path d="M290.833 175.937C289.459 178.1 286.592 178.74 284.429 177.367C282.267 175.994 281.627 173.127 283 170.964C284.373 168.801 287.24 168.161 289.403 169.534C291.566 170.908 292.206 173.775 290.833 175.937Z" fill="#D7F99D"/>
<path d="M262.739 163.721C262.9 166.278 260.957 168.481 258.399 168.641C255.842 168.802 253.64 166.858 253.479 164.301C253.319 161.744 255.262 159.541 257.819 159.381C260.376 159.221 262.579 161.164 262.739 163.721Z" fill="#D7F99D"/>
<path d="M232.831 170.351C234.464 172.325 234.187 175.249 232.212 176.882C230.237 178.515 227.313 178.238 225.681 176.263C224.048 174.288 224.325 171.364 226.3 169.732C228.274 168.099 231.198 168.376 232.831 170.351Z" fill="#D7F99D"/>
<path d="M201.992 201.928C205.257 201.944 207.89 204.604 207.874 207.868C207.857 211.133 205.197 213.766 201.933 213.75C198.668 213.733 196.035 211.074 196.051 207.809C196.068 204.544 198.727 201.911 201.992 201.928Z" fill="#D7F99D"/>
<path d="M206.143 236.967C208.794 235.061 212.487 235.665 214.393 238.316C216.299 240.966 215.695 244.66 213.044 246.566C210.393 248.471 206.699 247.867 204.794 245.217C202.888 242.566 203.492 238.872 206.143 236.967Z" fill="#D7F99D"/>
<path d="M230.097 262.875C231.121 259.775 234.464 258.092 237.564 259.117C240.664 260.141 242.346 263.484 241.322 266.584C240.298 269.684 236.954 271.366 233.855 270.342C230.755 269.318 229.072 265.974 230.097 262.875Z" fill="#D7F99D"/>
<path d="M264.703 269.754C263.71 266.644 265.426 263.318 268.536 262.325C271.645 261.332 274.972 263.047 275.965 266.157C276.958 269.267 275.242 272.593 272.133 273.587C269.023 274.58 265.696 272.864 264.703 269.754Z" fill="#D7F99D"/>
<path d="M296.745 254.979C294.113 253.047 293.546 249.347 295.478 246.716C297.41 244.084 301.11 243.517 303.741 245.45C306.373 247.382 306.94 251.081 305.008 253.713C303.076 256.344 299.376 256.911 296.745 254.979Z" fill="#D7F99D"/>
<path d="M313.982 224.192C310.717 224.176 308.084 221.516 308.101 218.251C308.117 214.987 310.777 212.354 314.041 212.37C317.306 212.386 319.939 215.046 319.923 218.311C319.906 221.575 317.247 224.208 313.982 224.192Z" fill="#D7F99D"/>
<path d="M309.831 189.153C307.181 191.059 303.487 190.455 301.581 187.804C299.676 185.153 300.28 181.459 302.93 179.554C305.581 177.648 309.275 178.252 311.18 180.903C313.086 183.554 312.482 187.247 309.831 189.153Z" fill="#D7F99D"/>
<path d="M285.878 163.246C284.854 166.345 281.51 168.028 278.411 167.003C275.311 165.979 273.629 162.636 274.653 159.536C275.677 156.436 279.02 154.754 282.12 155.778C285.22 156.803 286.902 160.146 285.878 163.246Z" fill="#D7F99D"/>
<path d="M251.271 156.366C252.264 159.475 250.549 162.802 247.439 163.795C244.329 164.788 241.003 163.072 240.009 159.962C239.016 156.853 240.732 153.526 243.842 152.533C246.952 151.54 250.278 153.256 251.271 156.366Z" fill="#D7F99D"/>
<path d="M219.23 171.141C221.861 173.073 222.428 176.773 220.496 179.404C218.564 182.036 214.864 182.603 212.233 180.67C209.601 178.738 209.034 175.039 210.967 172.407C212.899 169.776 216.598 169.209 219.23 171.141Z" fill="#D7F99D"/>
<path d="M192.935 213.627C196.827 212.736 200.705 215.168 201.596 219.06C202.487 222.952 200.055 226.83 196.163 227.721C192.271 228.612 188.393 226.18 187.502 222.288C186.611 218.396 189.043 214.518 192.935 213.627Z" fill="#D7F99D"/>
<path d="M205.692 251.755C208.317 248.746 212.884 248.435 215.893 251.06C218.901 253.685 219.212 258.251 216.588 261.26C213.963 264.269 209.396 264.58 206.387 261.955C203.379 259.33 203.067 254.764 205.692 251.755Z" fill="#D7F99D"/>
<path d="M238.425 275.103C238.78 271.126 242.292 268.19 246.268 268.545C250.245 268.9 253.181 272.412 252.826 276.389C252.471 280.366 248.96 283.302 244.983 282.947C241.006 282.592 238.07 279.08 238.425 275.103Z" fill="#D7F99D"/>
<path d="M278.628 274.752C276.578 271.326 277.693 266.887 281.119 264.837C284.545 262.786 288.985 263.902 291.035 267.328C293.086 270.754 291.97 275.193 288.544 277.243C285.118 279.294 280.679 278.179 278.628 274.752Z" fill="#D7F99D"/>
<path d="M310.948 250.837C307.276 249.271 305.569 245.024 307.135 241.351C308.702 237.679 312.949 235.971 316.621 237.538C320.294 239.105 322.001 243.352 320.435 247.024C318.868 250.697 314.621 252.404 310.948 250.837Z" fill="#D7F99D"/>
<path d="M323.039 212.493C319.147 213.384 315.269 210.951 314.378 207.059C313.487 203.167 315.919 199.29 319.811 198.399C323.703 197.507 327.581 199.94 328.472 203.832C329.363 207.724 326.931 211.601 323.039 212.493Z" fill="#D7F99D"/>
<path d="M310.282 174.364C307.657 177.373 303.09 177.684 300.081 175.059C297.073 172.435 296.761 167.868 299.386 164.859C302.011 161.85 306.578 161.539 309.586 164.164C312.595 166.789 312.906 171.356 310.282 174.364Z" fill="#D7F99D"/>
<path d="M277.55 151.017C277.195 154.994 273.683 157.93 269.706 157.575C265.73 157.22 262.793 153.708 263.148 149.731C263.504 145.754 267.015 142.818 270.992 143.173C274.969 143.528 277.905 147.04 277.55 151.017Z" fill="#D7F99D"/>
<path d="M237.346 151.367C239.396 154.793 238.281 159.233 234.855 161.283C231.429 163.333 226.989 162.218 224.939 158.792C222.889 155.366 224.004 150.927 227.43 148.876C230.856 146.826 235.295 147.941 237.346 151.367Z" fill="#D7F99D"/>
<path d="M205.026 175.282C208.698 176.849 210.406 181.096 208.839 184.769C207.272 188.441 203.025 190.148 199.353 188.582C195.68 187.015 193.973 182.768 195.54 179.096C197.106 175.423 201.353 173.716 205.026 175.282Z" fill="#D7F99D"/>
<path d="M186.574 231.052C190.615 229.033 195.528 230.671 197.547 234.712C199.567 238.753 197.928 243.666 193.888 245.685C189.847 247.705 184.934 246.066 182.914 242.025C180.895 237.984 182.534 233.072 186.574 231.052Z" fill="#D7F99D"/>
<path d="M210.757 269.559C212.839 265.55 217.776 263.988 221.785 266.07C225.794 268.152 227.356 273.089 225.274 277.098C223.192 281.107 218.254 282.669 214.245 280.587C210.236 278.505 208.674 273.567 210.757 269.559Z" fill="#D7F99D"/>
<path d="M252.956 286.481C252.284 282.014 255.361 277.848 259.828 277.176C264.295 276.504 268.461 279.581 269.133 284.048C269.805 288.515 266.728 292.681 262.261 293.353C257.794 294.025 253.628 290.948 252.956 286.481Z" fill="#D7F99D"/>
<path d="M297.042 275.416C293.873 272.197 293.913 267.019 297.132 263.849C300.351 260.68 305.53 260.72 308.699 263.939C311.868 267.158 311.828 272.337 308.609 275.506C305.39 278.676 300.211 278.635 297.042 275.416Z" fill="#D7F99D"/>
<path d="M326.215 240.51C321.759 239.769 318.748 235.556 319.489 231.1C320.23 226.644 324.444 223.632 328.9 224.373C333.356 225.115 336.367 229.328 335.626 233.784C334.885 238.24 330.671 241.252 326.215 240.51Z" fill="#D7F99D"/>
<path d="M329.275 195.157C325.234 197.176 320.321 195.538 318.301 191.497C316.282 187.456 317.921 182.543 321.961 180.524C326.002 178.504 330.915 180.143 332.934 184.184C334.954 188.225 333.315 193.137 329.275 195.157Z" fill="#D7F99D"/>
<path d="M305.105 156.642C303.023 160.65 298.085 162.212 294.076 160.13C290.067 158.048 288.505 153.111 290.587 149.102C292.669 145.093 297.607 143.531 301.616 145.613C305.625 147.695 307.187 152.633 305.105 156.642Z" fill="#D7F99D"/>
<path d="M262.91 139.696C263.582 144.163 260.506 148.329 256.038 149.001C251.571 149.673 247.405 146.597 246.733 142.13C246.061 137.662 249.138 133.496 253.605 132.824C258.072 132.153 262.238 135.229 262.91 139.696Z" fill="#D7F99D"/>
<path d="M218.807 150.793C221.976 154.012 221.936 159.19 218.717 162.36C215.498 165.529 210.319 165.489 207.15 162.27C203.981 159.051 204.021 153.872 207.24 150.703C210.459 147.533 215.638 147.574 218.807 150.793Z" fill="#D7F99D"/>
<path d="M189.67 185.674C194.126 186.415 197.137 190.628 196.396 195.085C195.655 199.541 191.441 202.552 186.985 201.811C182.529 201.069 179.518 196.856 180.259 192.4C181 187.944 185.214 184.932 189.67 185.674Z" fill="#D7F99D"/>
<path d="M185.628 251.488C189.401 248.327 195.021 248.823 198.182 252.596C201.343 256.368 200.847 261.989 197.074 265.15C193.302 268.31 187.681 267.814 184.521 264.042C181.36 260.269 181.856 254.649 185.628 251.488Z" fill="#D7F99D"/>
<path d="M222 286.65C223.194 281.875 228.033 278.973 232.807 280.167C237.582 281.361 240.484 286.2 239.29 290.974C238.096 295.749 233.257 298.651 228.483 297.457C223.708 296.263 220.806 291.424 222 286.65Z" fill="#D7F99D"/>
<path d="M272.091 293.698C270.251 289.133 272.459 283.941 277.024 282.101C281.588 280.261 286.78 282.469 288.621 287.034C290.461 291.598 288.252 296.79 283.688 298.631C279.123 300.471 273.931 298.262 272.091 293.698Z" fill="#D7F99D"/>
<path d="M316.769 270.009C312.597 267.398 311.332 261.899 313.944 257.728C316.555 253.556 322.053 252.291 326.225 254.902C330.397 257.513 331.662 263.012 329.051 267.183C326.44 271.355 320.941 272.62 316.769 270.009Z" fill="#D7F99D"/>
<path d="M338.992 224.539C334.083 224.878 329.827 221.174 329.487 216.264C329.148 211.354 332.853 207.098 337.762 206.759C342.672 206.419 346.928 210.124 347.267 215.034C347.607 219.944 343.902 224.199 338.992 224.539Z" fill="#D7F99D"/>
<path d="M330.225 174.731C326.453 177.892 320.832 177.396 317.672 173.623C314.511 169.851 315.007 164.23 318.78 161.069C322.552 157.909 328.172 158.405 331.333 162.177C334.494 165.95 333.998 171.57 330.225 174.731Z" fill="#D7F99D"/>
<path d="M293.864 139.558C292.67 144.333 287.831 147.235 283.057 146.041C278.282 144.847 275.38 140.008 276.574 135.234C277.768 130.459 282.607 127.557 287.381 128.751C292.156 129.945 295.058 134.784 293.864 139.558Z" fill="#D7F99D"/>
<path d="M243.773 132.484C245.613 137.049 243.405 142.241 238.84 144.081C234.276 145.921 229.084 143.713 227.243 139.148C225.403 134.584 227.612 129.392 232.176 127.551C236.741 125.711 241.933 127.92 243.773 132.484Z" fill="#D7F99D"/>
<path d="M199.084 156.21C203.256 158.821 204.521 164.32 201.91 168.492C199.299 172.663 193.8 173.929 189.629 171.317C185.457 168.706 184.192 163.208 186.803 159.036C189.414 154.864 194.913 153.599 199.084 156.21Z" fill="#D7F99D"/>
<path d="M176.893 201.646C181.803 201.307 186.059 205.011 186.398 209.921C186.738 214.831 183.033 219.087 178.123 219.426C173.214 219.766 168.958 216.061 168.618 211.151C168.279 206.241 171.984 201.986 176.893 201.646Z" fill="#D7F99D"/>
<path d="M189.751 273.39C192.969 269.117 199.043 268.261 203.317 271.48C207.591 274.699 208.446 280.773 205.228 285.047C202.009 289.32 195.935 290.176 191.661 286.957C187.387 283.738 186.532 277.664 189.751 273.39Z" fill="#D7F99D"/>
<path d="M238.206 301.947C238.298 296.598 242.709 292.336 248.058 292.428C253.408 292.52 257.67 296.931 257.578 302.28C257.486 307.63 253.075 311.892 247.725 311.8C242.376 311.708 238.114 307.297 238.206 301.947Z" fill="#D7F99D"/>
<path d="M294.185 296.549C291.115 292.167 292.178 286.126 296.56 283.056C300.942 279.986 306.983 281.049 310.053 285.431C313.123 289.813 312.06 295.854 307.678 298.924C303.296 301.994 297.255 300.931 294.185 296.549Z" fill="#D7F99D"/>
<path d="M336.325 259.331C331.266 257.59 328.575 252.078 330.316 247.019C332.057 241.959 337.569 239.269 342.628 241.01C347.688 242.75 350.378 248.262 348.637 253.322C346.897 258.381 341.385 261.072 336.325 259.331Z" fill="#D7F99D"/>
<path d="M348.532 204.403C343.416 205.969 337.999 203.09 336.433 197.974C334.867 192.858 337.746 187.442 342.862 185.876C347.978 184.31 353.395 187.188 354.96 192.304C356.526 197.421 353.648 202.837 348.532 204.403Z" fill="#D7F99D"/>
<path d="M326.111 152.839C322.892 157.113 316.818 157.969 312.544 154.75C308.27 151.531 307.415 145.457 310.633 141.183C313.852 136.909 319.926 136.054 324.2 139.273C328.474 142.492 329.329 148.566 326.111 152.839Z" fill="#D7F99D"/>
<path d="M277.664 124.268C277.572 129.618 273.161 133.88 267.811 133.788C262.462 133.696 258.2 129.285 258.292 123.935C258.383 118.586 262.795 114.323 268.144 114.415C273.494 114.507 277.756 118.918 277.664 124.268Z" fill="#D7F99D"/>
<path d="M221.678 129.638C224.748 134.02 223.685 140.061 219.303 143.131C214.921 146.201 208.88 145.138 205.81 140.756C202.74 136.374 203.803 130.333 208.185 127.263C212.567 124.193 218.608 125.256 221.678 129.638Z" fill="#D7F99D"/>
<path d="M179.536 166.899C184.595 168.64 187.286 174.152 185.545 179.211C183.805 184.271 178.292 186.961 173.233 185.221C168.174 183.48 165.483 177.968 167.224 172.908C168.964 167.849 174.476 165.159 179.536 166.899Z" fill="#D7F99D"/>
<path d="M167.355 221.782C172.472 220.216 177.888 223.095 179.454 228.211C181.02 233.327 178.141 238.744 173.025 240.309C167.909 241.875 162.493 238.997 160.927 233.881C159.361 228.764 162.239 223.348 167.355 221.782Z" fill="#D7F99D"/>
<path d="M200.306 294.321C202.671 288.966 208.929 286.542 214.284 288.907C219.64 291.271 222.064 297.53 219.699 302.885C217.334 308.24 211.075 310.665 205.72 308.3C200.365 305.935 197.941 299.676 200.306 294.321Z" fill="#D7F99D"/>
<path d="M259.044 312.679C257.81 306.956 261.448 301.317 267.171 300.082C272.893 298.848 278.533 302.486 279.768 308.209C281.002 313.931 277.364 319.571 271.641 320.805C265.918 322.04 260.279 318.401 259.044 312.679Z" fill="#D7F99D"/>
<path d="M317.343 292.985C312.981 289.081 312.609 282.38 316.513 278.017C320.417 273.655 327.119 273.284 331.481 277.188C335.843 281.092 336.215 287.793 332.311 292.155C328.406 296.518 321.705 296.889 317.343 292.985Z" fill="#D7F99D"/>
<path d="M352.972 242.836C347.148 242.241 342.909 237.038 343.503 231.214C344.097 225.39 349.3 221.151 355.124 221.745C360.948 222.34 365.188 227.543 364.593 233.367C363.999 239.191 358.796 243.43 352.972 242.836Z" fill="#D7F99D"/>
<path d="M352.297 181.273C347.236 184.215 340.748 182.497 337.806 177.436C334.863 172.375 336.581 165.887 341.642 162.945C346.703 160.003 353.191 161.72 356.133 166.781C359.076 171.842 357.358 178.33 352.297 181.273Z" fill="#D7F99D"/>
<path d="M315.566 131.918C313.201 137.274 306.943 139.698 301.588 137.333C296.232 134.968 293.808 128.709 296.173 123.354C298.538 117.999 304.797 115.575 310.152 117.94C315.507 120.305 317.931 126.563 315.566 131.918Z" fill="#D7F99D"/>
<path d="M256.833 113.543C258.067 119.265 254.429 124.905 248.706 126.14C242.984 127.374 237.344 123.736 236.11 118.013C234.875 112.291 238.514 106.651 244.236 105.416C249.959 104.182 255.598 107.82 256.833 113.543Z" fill="#D7F99D"/>
<path d="M198.52 133.208C202.882 137.112 203.254 143.814 199.35 148.176C195.446 152.538 188.744 152.91 184.382 149.006C180.02 145.102 179.648 138.4 183.552 134.038C187.457 129.676 194.158 129.304 198.52 133.208Z" fill="#D7F99D"/>
<path d="M162.9 183.404C168.724 183.998 172.963 189.201 172.369 195.025C171.774 200.849 166.571 205.089 160.747 204.494C154.923 203.9 150.684 198.697 151.278 192.873C151.873 187.049 157.076 182.81 162.9 183.404Z" fill="#D7F99D"/>
<path d="M163.591 244.912C168.652 241.97 175.14 243.687 178.083 248.749C181.025 253.81 179.308 260.298 174.247 263.24C169.185 266.182 162.697 264.465 159.755 259.404C156.813 254.343 158.53 247.855 163.591 244.912Z" fill="#D7F99D"/>
</g>
<g filter="url(#filter1_d_12887_21344)">
<path d="M318.973 27.5674C326.786 27.5675 333.12 33.9016 333.12 41.7148C333.12 49.5283 326.786 55.8632 318.973 55.8633H268.041C261.456 55.8634 256.117 61.2016 256.117 67.7871C256.117 74.3727 261.455 79.7118 268.041 79.7119H393.349C407.636 79.7121 419.218 91.2938 419.218 105.581V149.236C419.218 156.38 425.01 162.172 432.153 162.172H436.195C443.339 162.172 449.13 156.38 449.13 149.236V136.706C449.13 127.776 456.369 120.537 465.299 120.537C474.229 120.537 481.468 127.776 481.468 136.706V264.843C481.468 273.772 474.229 281.012 465.299 281.012C456.369 281.012 449.13 273.772 449.13 264.843V249.887C449.13 242.743 443.339 236.952 436.195 236.952H432.153C425.01 236.952 419.218 242.743 419.218 249.887V316.986C419.218 331.274 407.636 342.856 393.349 342.856H149.201C134.914 342.856 123.332 331.274 123.332 316.986V306.477C123.332 299.333 117.54 293.542 110.396 293.542H103.121C88.8336 293.542 77.251 281.959 77.251 267.672V223.814C77.2508 217.675 72.2739 212.699 66.1348 212.699C59.9959 212.699 55.0197 217.676 55.0195 223.814V282.628C55.0195 290.218 48.8664 296.371 41.2764 296.371C33.6861 296.371 27.5322 290.218 27.5322 282.628V121.346C27.5323 113.756 33.6862 107.603 41.2764 107.603C48.8663 107.603 55.0194 113.756 55.0195 121.346V182.989C55.0197 189.128 59.9959 194.104 66.1348 194.104C72.2738 194.104 77.2508 189.128 77.251 182.989V133.473C77.251 119.185 88.8336 107.603 103.121 107.603H115.854C119.983 107.603 123.332 104.255 123.332 100.125C123.332 88.8513 132.471 79.7119 143.745 79.7119H218.524C225.11 79.7119 230.449 74.3728 230.449 67.7871C230.449 61.2015 225.11 55.8633 218.524 55.8633H166.179C158.365 55.8633 152.031 49.5283 152.031 41.7148C152.031 33.9016 158.365 27.5674 166.179 27.5674H318.973Z" stroke="#BAF264" stroke-width="12.9349" shape-rendering="crispEdges"/>
</g>
<g filter="url(#filter2_d_12887_21344)">
<path d="M104.64 370.071C106.752 370.071 108.48 371.799 108.48 373.911V376.071C108.48 378.207 106.752 379.911 104.64 379.911H100.32V386.391H97.92V370.071H104.64ZM100.32 377.511H104.64C105.432 377.511 106.08 376.863 106.08 376.071V373.911C106.08 373.143 105.432 372.471 104.64 372.471H100.32V377.511ZM123.591 386.391L120.879 386.415L117.471 379.935H114.711V386.415H112.311V370.095H119.031C121.143 370.095 122.871 371.799 122.871 373.935V376.095C122.871 377.823 121.695 379.311 120.087 379.767L123.591 386.391ZM119.007 372.495H114.687V377.535H119.007C119.823 377.535 120.447 376.863 120.447 376.095V373.935C120.447 373.143 119.823 372.495 119.007 372.495ZM137.261 386.391H126.701V383.991H130.781V372.471H126.701V370.071H137.261V372.471H133.181V383.991H137.261V386.391ZM146.804 384.471L149.684 370.071H152.132L148.868 386.391H143.852L140.612 370.071H143.06L145.916 384.471H146.804ZM166.523 386.391H164.051L162.971 380.871H158.531L157.451 386.391H155.003L158.051 370.071H163.475L166.523 386.391ZM160.187 372.471L159.011 378.471H162.491L161.291 372.471H160.187ZM172.273 373.911V382.551C172.273 383.343 172.897 383.991 173.713 383.991H180.433V386.391H173.713C171.601 386.391 169.873 384.687 169.873 382.551V373.911C169.873 371.799 171.601 370.071 173.713 370.071H176.593C178.705 370.071 180.433 371.799 180.433 373.911H178.033C178.033 373.143 177.385 372.471 176.593 372.471H173.713C172.897 372.471 172.273 373.143 172.273 373.911ZM188.344 379.143L183.784 370.071H186.376L189.544 376.575L192.712 370.071H195.304L190.744 379.143V386.391H188.344V379.143ZM224.085 386.391H221.613L220.533 380.871H216.093L215.013 386.391H212.565L215.613 370.071H221.037L224.085 386.391ZM217.749 372.471L216.573 378.471H220.053L218.853 372.471H217.749ZM235.596 382.551V370.071H237.996V382.551C237.996 384.687 236.268 386.391 234.156 386.391H231.276C229.164 386.391 227.436 384.687 227.436 382.551V370.071H229.836V382.551C229.836 383.343 230.46 383.991 231.276 383.991H234.156C234.948 383.991 235.596 383.343 235.596 382.551ZM248.546 370.071C250.658 370.071 252.386 371.799 252.386 373.911V382.551C252.386 384.687 250.658 386.391 248.546 386.391H241.826V370.071H248.546ZM244.226 383.991H248.546C249.338 383.991 249.986 383.343 249.986 382.551V373.911C249.986 373.143 249.338 372.471 248.546 372.471H244.226V383.991ZM266.777 386.391H256.217V383.991H260.297V372.471H256.217V370.071H266.777V372.471H262.697V383.991H266.777V386.391ZM274.688 372.471H270.608V370.071H281.168V372.471H277.088V386.391H274.688V372.471ZM301.789 373.911V382.551C301.789 383.343 302.413 383.991 303.229 383.991H309.949V386.391H303.229C301.117 386.391 299.389 384.687 299.389 382.551V373.911C299.389 371.799 301.117 370.071 303.229 370.071H306.109C308.221 370.071 309.949 371.799 309.949 373.911H307.549C307.549 373.143 306.901 372.471 306.109 372.471H303.229C302.413 372.471 301.789 373.143 301.789 373.911ZM317.619 370.071H320.499C322.611 370.071 324.339 371.799 324.339 373.911V382.551C324.339 384.687 322.611 386.391 320.499 386.391H317.619C315.507 386.391 313.779 384.687 313.779 382.551V373.911C313.779 371.799 315.507 370.071 317.619 370.071ZM317.619 383.991H320.499C321.291 383.991 321.939 383.343 321.939 382.551V373.911C321.939 373.143 321.291 372.471 320.499 372.471H317.619C316.803 372.471 316.179 373.143 316.179 373.911V382.551C316.179 383.343 316.803 383.991 317.619 383.991ZM330.57 386.391H328.17V370.071H330.57L333.45 374.943L336.33 370.071H338.73V386.391H336.33V374.631L334.314 378.087H332.562L330.57 374.631V386.391ZM349.281 370.071C351.393 370.071 353.121 371.799 353.121 373.911V376.071C353.121 378.207 351.393 379.911 349.281 379.911H344.961V386.391H342.561V370.071H349.281ZM344.961 377.511H349.281C350.073 377.511 350.721 376.863 350.721 376.071V373.911C350.721 373.143 350.073 372.471 349.281 372.471H344.961V377.511ZM367.511 386.391H356.951V370.071H359.351V383.991H367.511V386.391ZM381.902 386.391H371.342V370.071H381.902V372.471H373.742V376.551H380.942V378.951H373.742V383.991H381.902V386.391ZM389.812 372.471H385.733V370.071H396.293V372.471H392.213V386.391H389.812V372.471ZM410.683 386.391H400.123V370.071H410.683V372.471H402.523V376.551H409.723V378.951H402.523V383.991H410.683V386.391Z" fill="#BAF264"/>
</g>
<defs>
<filter id="filter0_d_12887_21344" x="131.012" y="84.965" width="253.848" height="256.293" filterUnits="userSpaceOnUse" color-interpolation-filters="sRGB">
<feFlood flood-opacity="0" result="BackgroundImageFix"/>
<feColorMatrix in="SourceAlpha" type="matrix" values="0 0 0 0 0 0 0 0 0 0 0 0 0 0 0 0 0 0 127 0" result="hardAlpha"/>
<feOffset/>
<feGaussianBlur stdDeviation="10.1054"/>
<feComposite in2="hardAlpha" operator="out"/>
<feColorMatrix type="matrix" values="0 0 0 0 0.890196 0 0 0 0 0.984314 0 0 0 0 0.717647 0 0 0 0.4 0"/>
<feBlend mode="normal" in2="BackgroundImageFix" result="effect1_dropShadow_12887_21344"/>
<feBlend mode="normal" in="SourceGraphic" in2="effect1_dropShadow_12887_21344" result="shape"/>
</filter>
<filter id="filter1_d_12887_21344" x="0.854248" y="0.890747" width="507.292" height="368.644" filterUnits="userSpaceOnUse" color-interpolation-filters="sRGB">
<feFlood flood-opacity="0" result="BackgroundImageFix"/>
<feColorMatrix in="SourceAlpha" type="matrix" values="0 0 0 0 0 0 0 0 0 0 0 0 0 0 0 0 0 0 127 0" result="hardAlpha"/>
<feOffset/>
<feGaussianBlur stdDeviation="10.1054"/>
<feComposite in2="hardAlpha" operator="out"/>
<feColorMatrix type="matrix" values="0 0 0 0 0.890196 0 0 0 0 0.984314 0 0 0 0 0.717647 0 0 0 0.4 0"/>
<feBlend mode="normal" in2="BackgroundImageFix" result="effect1_dropShadow_12887_21344"/>
<feBlend mode="normal" in="SourceGraphic" in2="effect1_dropShadow_12887_21344" result="shape"/>
</filter>
<filter id="filter2_d_12887_21344" x="77.7092" y="349.859" width="353.185" height="56.7654" filterUnits="userSpaceOnUse" color-interpolation-filters="sRGB">
<feFlood flood-opacity="0" result="BackgroundImageFix"/>
<feColorMatrix in="SourceAlpha" type="matrix" values="0 0 0 0 0 0 0 0 0 0 0 0 0 0 0 0 0 0 127 0" result="hardAlpha"/>
<feOffset/>
<feGaussianBlur stdDeviation="10.1054"/>
<feComposite in2="hardAlpha" operator="out"/>
<feColorMatrix type="matrix" values="0 0 0 0 0.890196 0 0 0 0 0.984314 0 0 0 0 0.717647 0 0 0 0.4 0"/>
<feBlend mode="normal" in2="BackgroundImageFix" result="effect1_dropShadow_12887_21344"/>
<feBlend mode="normal" in="SourceGraphic" in2="effect1_dropShadow_12887_21344" result="shape"/>
</filter>
</defs>
</svg>
