<svg xmlns="http://www.w3.org/2000/svg" width="136" height="29" fill="none"><path fill="#EEEAE2" d="M11.963 11.166a.192.192 0 1 1-.311.226.192.192 0 0 1 .311-.226ZM10.622 12.89a.192.192 0 1 1-.119.366.192.192 0 0 1 .119-.366ZM10.55 15.072a.192.192 0 1 1 .12.366.192.192 0 0 1-.12-.366ZM11.775 16.88a.192.192 0 1 1 .312.227.192.192 0 0 1-.312-.227ZM13.83 17.623a.192.192 0 1 1 .384 0 .192.192 0 0 1-.385 0ZM15.927 17.017a.192.192 0 1 1 .311-.226.192.192 0 0 1-.31.226ZM17.268 15.293a.192.192 0 1 1 .12-.366.192.192 0 0 1-.12.366ZM17.34 13.11a.192.192 0 1 1-.12-.365.192.192 0 0 1 .12.365ZM16.115 11.302a.192.192 0 1 1-.312-.226.192.192 0 0 1 .312.226ZM14.061 10.56a.192.192 0 1 1-.385 0 .192.192 0 0 1 .385 0ZM10.886 10.742a.327.327 0 1 1-.441.482.327.327 0 0 1 .44-.482ZM9.502 13.18a.327.327 0 1 1-.074.65.327.327 0 0 1 .074-.65ZM9.815 15.966a.327.327 0 1 1 .322.569.327.327 0 0 1-.322-.569ZM11.705 18.036a.327.327 0 1 1 .595.27.327.327 0 0 1-.595-.27ZM14.452 18.599a.327.327 0 1 1 .64-.13.327.327 0 0 1-.64.13ZM17.004 17.44a.327.327 0 1 1 .442-.482.327.327 0 0 1-.442.482ZM18.388 15.002a.327.327 0 1 1 .074-.649.327.327 0 0 1-.074.65ZM18.075 12.217a.327.327 0 1 1-.321-.569.327.327 0 0 1 .321.569ZM16.185 10.147a.327.327 0 1 1-.595-.27.327.327 0 0 1 .595.27ZM13.438 9.584a.327.327 0 1 1-.64.13.327.327 0 0 1 .64-.13ZM9.508 10.895a.452.452 0 1 1-.435.792.452.452 0 0 1 .435-.792ZM8.476 14.113a.452.452 0 1 1 .115.897.452.452 0 0 1-.115-.897ZM9.534 17.324a.452.452 0 1 1 .62.658.452.452 0 0 1-.62-.658ZM12.276 19.3a.452.452 0 1 1 .888.167.452.452 0 0 1-.888-.168ZM15.656 19.286a.452.452 0 1 1 .817-.386.452.452 0 0 1-.817.386ZM18.382 17.288a.452.452 0 1 1 .435-.793.452.452 0 0 1-.435.793ZM19.414 14.07a.452.452 0 1 1-.115-.897.452.452 0 0 1 .115.896ZM18.357 10.859a.452.452 0 1 1-.62-.658.452.452 0 0 1 .62.658ZM15.614 8.883a.452.452 0 1 1-.888-.168.452.452 0 0 1 .888.168ZM12.234 8.897a.452.452 0 1 1-.817.386.452.452 0 0 1 .817-.386ZM8.008 11.51a.606.606 0 1 1-.302 1.173.606.606 0 0 1 .302-1.174ZM7.624 15.492a.606.606 0 1 1 .446 1.127.606.606 0 0 1-.446-1.127ZM9.655 18.94a.606.606 0 1 1 1.023.65.606.606 0 0 1-1.023-.65ZM13.324 20.536a.606.606 0 1 1 1.21-.076.606.606 0 0 1-1.21.076ZM17.23 19.67a.606.606 0 1 1 .935-.772.606.606 0 0 1-.934.772ZM19.882 16.673a.606.606 0 1 1 .302-1.174.606.606 0 0 1-.302 1.174ZM20.266 12.69a.606.606 0 1 1-.446-1.127.606.606 0 0 1 .446 1.127ZM18.235 9.243a.606.606 0 1 1-1.023-.65.606.606 0 0 1 1.023.65ZM14.566 7.647a.606.606 0 1 1-1.21.076.606.606 0 0 1 1.21-.076ZM10.66 8.513a.606.606 0 1 1-.934.772.606.606 0 0 1 .933-.772ZM6.631 12.637a.772.772 0 1 1-.007 1.544.772.772 0 0 1 .007-1.544ZM7.173 17.214a.772.772 0 1 1 .902 1.254.772.772 0 0 1-.902-1.254ZM10.302 20.598a.772.772 0 1 1 1.466.484.772.772 0 0 1-1.466-.484ZM14.822 21.497a.772.772 0 1 1 1.471-.47.772.772 0 0 1-1.47.47ZM19.007 19.567a.772.772 0 1 1 .914-1.245.772.772 0 0 1-.914 1.245ZM21.259 15.545a.772.772 0 1 1 .008-1.544.772.772 0 0 1-.008 1.544ZM20.717 10.969a.772.772 0 1 1-.902-1.254.772.772 0 0 1 .902 1.254ZM17.588 7.585a.772.772 0 1 1-1.466-.485.772.772 0 0 1 1.466.485ZM13.068 6.686a.772.772 0 1 1-1.471.47.772.772 0 0 1 1.47-.47ZM8.883 8.616a.772.772 0 1 1-.914 1.245.772.772 0 0 1 .914-1.245ZM5.448 14.165a.944.944 0 1 1 .422 1.841.944.944 0 0 1-.422-1.84ZM7.115 19.145a.944.944 0 1 1 1.423 1.242.944.944 0 0 1-1.423-1.242ZM11.39 22.195a.944.944 0 1 1 1.881.168.944.944 0 0 1-1.881-.168ZM16.641 22.15a.944.944 0 1 1 1.62-.97.944.944 0 0 1-1.62.97ZM20.863 19.026a.944.944 0 1 1 .74-1.737.944.944 0 0 1-.74 1.737ZM22.442 14.017a.944.944 0 1 1-.422-1.84.944.944 0 0 1 .422 1.84ZM20.776 9.037a.944.944 0 1 1-1.424-1.241.944.944 0 0 1 1.424 1.241ZM16.5 5.988a.944.944 0 1 1-1.88-.168.944.944 0 0 1 1.88.168ZM11.249 6.033a.944.944 0 1 1-1.62.97.944.944 0 0 1 1.62-.97ZM7.028 9.157a.944.944 0 1 1-.741 1.737.944.944 0 0 1 .74-1.737ZM4.617 16.441a1.068 1.068 0 1 1 .956 1.912 1.068 1.068 0 0 1-.956-1.912ZM7.776 21.47a1.068 1.068 0 1 1 1.896.986 1.068 1.068 0 0 1-1.896-.985ZM13.288 23.681a1.068 1.068 0 1 1 2.113-.318 1.068 1.068 0 0 1-2.113.318ZM19.046 22.236a1.068 1.068 0 1 1 1.523-1.5 1.068 1.068 0 0 1-1.523 1.5ZM22.857 17.677a1.068 1.068 0 1 1 .35-2.108 1.068 1.068 0 0 1-.35 2.108ZM23.256 11.753a1.068 1.068 0 1 1-.955-1.911 1.068 1.068 0 0 1 .955 1.91ZM20.1 6.722a1.068 1.068 0 1 1-1.897-.985 1.068 1.068 0 0 1 1.896.985ZM14.588 4.509a1.068 1.068 0 1 1-2.113.318 1.068 1.068 0 0 1 2.113-.318ZM8.828 5.958a1.068 1.068 0 1 1-1.523 1.5 1.068 1.068 0 0 1 1.523-1.5ZM5.022 10.514a1.068 1.068 0 1 1-.35 2.108 1.068 1.068 0 0 1 .35-2.108ZM4.494 19.11a1.164 1.164 0 1 1 1.495 1.785 1.164 1.164 0 0 1-1.495-1.784ZM9.245 23.703a1.164 1.164 0 1 1 2.258.565 1.164 1.164 0 0 1-2.258-.565ZM15.787 24.624a1.164 1.164 0 1 1 2.16-.87 1.164 1.164 0 0 1-2.16.87ZM21.623 21.53a1.164 1.164 0 1 1 1.235-1.974 1.164 1.164 0 0 1-1.235 1.974ZM24.526 15.59a1.164 1.164 0 1 1-.16-2.322 1.164 1.164 0 0 1 .16 2.323ZM23.38 9.085a1.164 1.164 0 1 1-1.494-1.784 1.164 1.164 0 0 1 1.495 1.784ZM18.631 4.49a1.164 1.164 0 1 1-2.258-.564 1.164 1.164 0 0 1 2.258.565ZM12.088 3.567a1.164 1.164 0 1 1-2.158.87 1.164 1.164 0 0 1 2.159-.87ZM6.251 6.666a1.164 1.164 0 1 1-1.235 1.973 1.164 1.164 0 0 1 1.235-1.973ZM3.353 12.6a1.164 1.164 0 1 1 .16 2.323 1.164 1.164 0 0 1-.16-2.322ZM5.032 21.971a1.265 1.265 0 1 1 2.022 1.523 1.265 1.265 0 0 1-2.022-1.523ZM11.361 25.701a1.265 1.265 0 1 1 2.53.044 1.265 1.265 0 0 1-2.53-.044ZM18.673 24.996a1.265 1.265 0 1 1 2.073-1.452 1.265 1.265 0 0 1-2.073 1.452ZM24.177 20.135a1.265 1.265 0 1 1 .824-2.393 1.265 1.265 0 0 1-.824 2.393ZM25.772 12.96a1.265 1.265 0 1 1-.741-2.42 1.265 1.265 0 0 1 .74 2.42ZM22.843 6.226a1.265 1.265 0 1 1-2.022-1.523 1.265 1.265 0 0 1 2.022 1.523ZM16.515 2.494a1.265 1.265 0 1 1-2.53-.044 1.265 1.265 0 0 1 2.53.044ZM9.203 3.195A1.265 1.265 0 1 1 7.13 4.647a1.265 1.265 0 0 1 2.073-1.452ZM3.698 8.062a1.265 1.265 0 1 1-.823 2.393 1.265 1.265 0 0 1 .823-2.393ZM2.107 15.23a1.265 1.265 0 1 1 .74 2.42 1.265 1.265 0 0 1-.74-2.42ZM6.411 24.705a1.385 1.385 0 1 1 2.533 1.119 1.385 1.385 0 0 1-2.533-1.119ZM14.083 27.103a1.384 1.384 0 1 1 2.707-.584 1.384 1.384 0 0 1-2.707.584ZM21.698 24.53a1.385 1.385 0 1 1 1.847-2.063 1.385 1.385 0 0 1-1.847 2.064ZM26.352 17.98a1.384 1.384 0 1 1 .28-2.754 1.384 1.384 0 0 1-.28 2.754ZM26.263 9.94a1.385 1.385 0 1 1-1.391-2.395 1.385 1.385 0 0 1 1.391 2.394ZM21.466 3.493a1.384 1.384 0 1 1-2.533-1.119 1.384 1.384 0 0 1 2.533 1.119ZM13.794 1.093a1.385 1.385 0 1 1-2.707.584 1.385 1.385 0 0 1 2.707-.584ZM6.178 3.661A1.385 1.385 0 1 1 4.33 5.725 1.385 1.385 0 0 1 6.178 3.66ZM1.525 10.218a1.384 1.384 0 1 1-.28 2.754 1.384 1.384 0 0 1 .28-2.754ZM1.616 18.252a1.384 1.384 0 1 1 1.391 2.394 1.384 1.384 0 0 1-1.391-2.394ZM43.407 24.162c-1.12 0-2.1-.22-2.944-.66a5.058 5.058 0 0 1-1.981-1.899v2.229h-2.477V4.022h2.477v8.392c.44-.66 1.063-1.248 1.87-1.761.808-.532 1.835-.798 3.082-.798 1.34 0 2.513.312 3.522.935a6.5 6.5 0 0 1 2.366 2.56c.569 1.081.853 2.31.853 3.686s-.284 2.605-.853 3.687a6.549 6.549 0 0 1-2.366 2.531c-1.009.605-2.192.908-3.55.908Zm-.33-2.146c.898 0 1.687-.211 2.366-.633a4.305 4.305 0 0 0 1.623-1.76c.403-.753.605-1.624.605-2.615 0-.99-.202-1.861-.605-2.613a4.305 4.305 0 0 0-1.623-1.761c-.68-.422-1.468-.633-2.367-.633-.88 0-1.669.21-2.366.633a4.368 4.368 0 0 0-1.596 1.76c-.385.753-.577 1.624-.577 2.614 0 .99.192 1.862.577 2.614a4.368 4.368 0 0 0 1.596 1.761c.697.422 1.486.633 2.366.633ZM57.716 24.162c-1.32 0-2.494-.293-3.522-.88a6.549 6.549 0 0 1-2.393-2.504c-.569-1.064-.853-2.311-.853-3.742 0-1.45.284-2.706.853-3.77.568-1.082 1.366-1.916 2.393-2.503 1.028-.605 2.21-.908 3.55-.908 1.339 0 2.485.303 3.439.908a5.932 5.932 0 0 1 2.229 2.338 6.54 6.54 0 0 1 .798 3.192v.605c0 .202-.01.422-.028.66h-11.39v-1.815h8.969c-.055-1.193-.468-2.128-1.238-2.807-.752-.678-1.697-1.018-2.834-1.018-.77 0-1.486.175-2.146.523-.66.33-1.193.835-1.596 1.513-.385.66-.578 1.486-.578 2.477v.742c0 1.083.202 1.99.605 2.724.404.734.936 1.284 1.596 1.651s1.367.55 2.119.55c.917 0 1.687-.21 2.31-.632.624-.422 1.083-1 1.377-1.734h2.448a6.348 6.348 0 0 1-1.183 2.256 5.683 5.683 0 0 1-2.09 1.596c-.826.385-1.77.578-2.835.578ZM84.031 24.162c-1.1 0-2.026-.183-2.779-.55-.751-.385-1.32-.89-1.705-1.514a4.042 4.042 0 0 1-.55-2.036c0-1.485.531-2.613 1.595-3.384 1.082-.789 2.495-1.183 4.237-1.183.77 0 1.468.055 2.091.165.624.11 1.138.239 1.541.385v-.605c0-1.174-.312-2.054-.935-2.641-.606-.605-1.422-.908-2.45-.908-.843 0-1.576.174-2.2.523-.606.348-.982.853-1.128 1.679h-2.476c.11-.973.44-1.698.99-2.34a5.174 5.174 0 0 1 2.119-1.43 7.716 7.716 0 0 1 2.696-.468c1.944 0 3.403.513 4.375 1.54.99 1.01 1.485 2.358 1.485 4.045v4.1c0 .66.037 1.146.11 1.458.092.312.239.504.44.578.202.073.478.11.826.11h.193v2.146h-.523c-.899 0-1.633-.147-2.201-.44-.569-.294-.954-.88-1.156-1.761-.422.715-1.009 1.32-1.76 1.816-.734.477-1.679.715-2.835.715Zm.386-2.008c.807 0 1.495-.202 2.063-.606a4.153 4.153 0 0 0 1.376-1.596c.33-.66.513-1.357.55-2.09a11.079 11.079 0 0 0-1.54-.33c-.606-.11-1.211-.166-1.817-.166-1.247 0-2.155.248-2.723.743a2.298 2.298 0 0 0-.826 1.816c0 .642.248 1.174.743 1.596.514.421 1.238.633 2.174.633ZM98.278 24.162c-1.486 0-2.696-.495-3.632-1.486-.935-.99-1.403-2.513-1.403-4.567v-7.924h2.476v7.676c0 1.394.276 2.44.826 3.137.569.697 1.348 1.045 2.338 1.045 1.156 0 2.064-.412 2.724-1.238.661-.843.991-2.026.991-3.549v-7.071h2.476v13.647h-2.476V21.63a4.61 4.61 0 0 1-1.733 1.87c-.734.44-1.596.661-2.587.661ZM112.591 24.162c-1.669 0-3.063-.385-4.182-1.156-1.119-.788-1.77-1.935-1.954-3.439h2.559a2.857 2.857 0 0 0 1.183 1.871c.642.459 1.468.688 2.476.688.954 0 1.688-.202 2.202-.605.513-.404.77-.918.77-1.541 0-.459-.165-.807-.495-1.046-.312-.256-.899-.458-1.761-.605a42.124 42.124 0 0 0-1.128-.22 34.91 34.91 0 0 0-1.101-.193 8.358 8.358 0 0 1-1.871-.633 4.143 4.143 0 0 1-1.513-1.238c-.404-.532-.605-1.22-.605-2.063 0-1.174.449-2.155 1.348-2.944.899-.789 2.128-1.183 3.687-1.183 1.504 0 2.751.348 3.742 1.045.99.68 1.549 1.743 1.678 3.192h-2.449c-.073-.789-.394-1.348-.963-1.678-.55-.349-1.229-.523-2.036-.523-.789 0-1.44.174-1.953.523-.496.348-.743.807-.743 1.375 0 .99.743 1.633 2.228 1.926.221.019.45.055.688.11.257.037.514.083.771.138.256.037.486.073.688.11.44.073.898.183 1.375.33.477.129.927.33 1.348.605a2.86 2.86 0 0 1 1.018 1.073c.276.44.413 1.01.413 1.706 0 .844-.22 1.596-.66 2.256-.44.66-1.064 1.184-1.871 1.569-.807.367-1.77.55-2.889.55ZM124.022 24.162c-1.101 0-2.027-.183-2.779-.55-.752-.385-1.321-.89-1.706-1.514a4.04 4.04 0 0 1-.55-2.036c0-1.485.532-2.613 1.596-3.384 1.082-.789 2.494-1.183 4.237-1.183.77 0 1.467.055 2.091.165.624.11 1.137.239 1.541.385v-.605c0-1.174-.312-2.054-.936-2.641-.605-.605-1.421-.908-2.449-.908-.843 0-1.577.174-2.201.523-.605.348-.981.853-1.128 1.678h-2.476c.11-.972.44-1.697.991-2.339a5.166 5.166 0 0 1 2.118-1.43 7.719 7.719 0 0 1 2.696-.468c1.945 0 3.403.513 4.375 1.54.991 1.01 1.486 2.358 1.486 4.045v4.1c0 .66.037 1.146.11 1.458.092.312.238.504.44.578.202.073.477.11.826.11h.192v2.146h-.523c-.898 0-1.632-.147-2.201-.44-.568-.294-.953-.88-1.155-1.761-.422.715-1.009 1.32-1.761 1.816-.734.477-1.678.715-2.834.715Zm.385-2.008c.807 0 1.495-.202 2.064-.606a4.15 4.15 0 0 0 1.375-1.596c.331-.66.514-1.357.551-2.09a11.095 11.095 0 0 0-1.541-.33 10.129 10.129 0 0 0-1.816-.166c-1.247 0-2.155.248-2.724.743a2.298 2.298 0 0 0-.825 1.816c0 .642.247 1.174.743 1.596.513.421 1.238.633 2.173.633ZM133.524 23.832V4.022H136v19.81h-2.476ZM71.953 24.162c-1.302 0-2.476-.303-3.521-.908a6.687 6.687 0 0 1-2.45-2.504c-.604-1.082-.907-2.33-.907-3.742 0-1.43.303-2.678.908-3.741a6.686 6.686 0 0 1 2.449-2.504c1.045-.605 2.219-.908 3.521-.908 1.651 0 3.027.43 4.127 1.293.995.78 1.61 1.596 2.033 2.945h-2.594c-.345-.738-.445-.94-1.172-1.432-.679-.458-1.477-.688-2.394-.688-.752 0-1.467.193-2.146.578-.66.385-1.192.954-1.596 1.706-.403.734-.605 1.65-.605 2.751 0 1.083.202 2 .606 2.752.403.752.935 1.32 1.595 1.706a4.283 4.283 0 0 0 2.146.577c.917 0 1.715-.22 2.394-.66a3 3 0 0 0 1.32-1.926h2.56a5.711 5.711 0 0 1-2.12 3.412c-1.118.862-2.503 1.293-4.154 1.293Z"/></svg>