<svg xmlns="http://www.w3.org/2000/svg" width="640" height="781" fill="none"><g opacity=".3"><path stroke="#C36DF8" stroke-miterlimit="10" stroke-width="1.4" d="m353.7 356.1 36.8 34.4M353.7 356.1l36.8 34.4M353.7 356.1l36.8 34.4M394.4 448.5l-3.9-58M394.4 448.5l-3.9-58M394.4 448.5l-3.9-58M437.1 317.6l-46.6 72.9M437.1 317.6l-46.6 72.9M437.1 317.6l-46.6 72.9M290.8 409l99.7-18.5M290.8 409l99.7-18.5M290.8 409l99.7-18.5M482.8 444.7l-92.3-54.2M482.8 444.7l-92.3-54.2M482.8 444.7l-92.3-54.2M360 256.4l30.5 134.1M360 256.4l30.5 134.1M360 256.4l30.5 134.1M319.6 507.5l70.9-117M319.6 507.5l70.9-117M319.6 507.5l70.9-117M516.5 329l-126 61.5M516.5 329l-126 61.5M516.5 329l-126 61.5M248.3 320.1l142.2 70.4M248.3 320.1l142.2 70.4M248.3 320.1l142.2 70.4M460.8 541.6l-70.3-151.1M460.8 541.6l-70.3-151.1M460.8 541.6l-70.3-151.1M433.5 233.2l-43 157.3M433.5 233.2l-43 157.3M433.5 233.2l-43 157.3M239.8 483.6l150.7-93.1M239.8 483.6l150.7-93.1M239.8 483.6l150.7-93.1M563.6 430.7l-173.1-40.2M563.6 430.7l-173.1-40.2M563.6 430.7l-173.1-40.2M272.8 229.2l117.7 161.3M272.8 229.2l117.7 161.3M272.8 229.2l117.7 161.3M366.8 586.3l23.7-195.8M366.8 586.3l23.7-195.8M366.8 586.3l23.7-195.8M538.2 247.7 390.5 390.5M538.2 247.7 390.5 390.5M538.2 247.7 390.5 390.5M172.5 367l218 23.5M172.5 367l218 23.5M172.5 367l218 23.5M525.4 534.8 390.5 390.5M525.4 534.8 390.5 390.5M525.4 534.8 390.5 390.5M371.2 153.1l19.3 237.4M371.2 153.1l19.3 237.4M371.2 153.1l19.3 237.4M242.2 562.7l148.3-172.2M242.2 562.7l148.3-172.2M242.2 562.7l148.3-172.2M622 352.2l-231.5 38.3M622 352.2l-231.5 38.3M622 352.2l-231.5 38.3M177.8 245.4l212.7 145.1M177.8 245.4l212.7 145.1M177.8 245.4l212.7 145.1M439.8 634.5l-49.3-244M439.8 634.5l-49.3-244M439.8 634.5l-49.3-244M513.6 166 390.5 390.4M513.6 166 390.5 390.4M513.6 166 390.5 390.4M139.8 460.4l250.7-69.9M139.8 460.4l250.7-69.9M139.8 460.4l250.7-69.9M626.5 486l-236-95.5M626.5 486l-236-95.5M626.5 486l-236-95.5M293 133.2l97.5 257.3M293 133.2l97.5 257.3M293 133.2l97.5 257.3M298.7 643.9l91.8-253.4M298.7 643.9l91.8-253.4M298.7 643.9l91.8-253.4M626.6 251.2 390.5 390.5M626.6 251.2 390.5 390.5M626.6 251.2 390.5 390.5M108.7 309l281.8 81.5M108.7 309l281.8 81.5M108.7 309l281.8 81.5M545.5 614l-155-223.5M545.5 614l-155-223.5M545.5 614l-155-223.5M425.6 95.2l-35.1 295.3M425.6 95.2l-35.1 295.3M425.6 95.2l-35.1 295.3M156.2 564.3l234.3-173.8M156.2 564.3l234.3-173.8M156.2 564.3l234.3-173.8M684.9 407.6l-294.4-17.1M684.9 407.6l-294.4-17.1M684.9 407.6l-294.4-17.1M166.9 164.9l223.6 225.6M166.9 164.9l223.6 225.6M166.9 164.9l223.6 225.6M383.3 689.3l7.2-298.8M383.3 689.3l7.2-298.8M383.3 689.3l7.2-298.8M589.8 154.9 390.5 390.5M589.8 154.9 390.5 390.5M589.8 154.9 390.5 390.5M65.3 406.3l325.2-15.8M65.3 406.3l325.2-15.8M65.3 406.3l325.2-15.8M644.4 586.6 390.5 390.5M644.4 586.6 390.5 390.5M644.4 586.6 390.5 390.5M333.2 72.7l57.3 317.8M333.2 72.7l57.3 317.8M333.2 72.7l57.3 317.8M211.3 668.1l179.2-277.6M211.3 668.1l179.2-277.6M211.3 668.1l179.2-277.6M712.7 291l-322.2 99.5M712.7 291l-322.2 99.5M712.7 291l-322.2 99.5M90.6 236.5l299.9 154M90.6 236.5l299.9 154M90.6 236.5l299.9 154M505 702.1 390.6 390.5M505 702.1 390.6 390.5M505 702.1 390.6 390.5M516.6 65.8 390.5 390.5M516.6 65.8 390.5 390.5M516.6 65.8 390.5 390.5M70.7 519.7l319.8-129.2M70.7 519.7l319.8-129.2M70.7 519.7l319.8-129.2M724.1 481l-333.6-90.5M724.1 481l-333.6-90.5M724.1 481l-333.6-90.5M208.3 80l182.2 310.5M208.3 80l182.2 310.5M208.3 80l182.2 310.5M303 740.8l87.5-350.3M303 740.8l87.5-350.3M303 740.8l87.5-350.3M680.7 168 390.5 390.6M680.7 168 390.5 390.6M680.7 168 390.5 390.6"/><path fill="#C36DF8" d="M353.7 341.7a14.5 14.5 0 1 0 0 28.9 14.5 14.5 0 0 0 0-29Z"/><path stroke="#C36DF8" stroke-miterlimit="10" stroke-width="2.9" d="M353.7 341.7a14.5 14.5 0 1 0 0 28.9 14.5 14.5 0 0 0 0-29Z"/><path fill="#C36DF8" d="M394.4 434a14.5 14.5 0 1 0 0 29 14.5 14.5 0 0 0 0-29Z"/><path stroke="#C36DF8" stroke-miterlimit="10" stroke-width="2.9" d="M394.4 434a14.5 14.5 0 1 0 0 29 14.5 14.5 0 0 0 0-29Z"/><path fill="#C36DF8" d="M437.1 303.2a14.5 14.5 0 1 0 0 28.9 14.5 14.5 0 0 0 0-29Z"/><path stroke="#C36DF8" stroke-miterlimit="10" stroke-width="2.9" d="M437.1 303.2a14.5 14.5 0 1 0 0 28.9 14.5 14.5 0 0 0 0-29Z"/><path fill="#C36DF8" d="M290.8 394.4a14.5 14.5 0 1 0 0 29 14.5 14.5 0 0 0 0-29Z"/><path stroke="#C36DF8" stroke-miterlimit="10" stroke-width="2.9" d="M290.8 394.4a14.5 14.5 0 1 0 0 29 14.5 14.5 0 0 0 0-29Z"/><path fill="#C36DF8" d="M482.8 430.2a14.5 14.5 0 1 0 0 29 14.5 14.5 0 0 0 0-29Z"/><path stroke="#C36DF8" stroke-miterlimit="10" stroke-width="2.9" d="M482.8 430.2a14.5 14.5 0 1 0 0 29 14.5 14.5 0 0 0 0-29Z"/><path fill="#C36DF8" d="M360 242a14.5 14.5 0 1 0 0 28.9 14.5 14.5 0 0 0 0-29Z"/><path stroke="#C36DF8" stroke-miterlimit="10" stroke-width="2.9" d="M360 242a14.5 14.5 0 1 0 0 28.9 14.5 14.5 0 0 0 0-29Z"/><path fill="#C36DF8" d="M319.6 493a14.5 14.5 0 1 0 0 29 14.5 14.5 0 0 0 0-29Z"/><path stroke="#C36DF8" stroke-miterlimit="10" stroke-width="2.9" d="M319.6 493a14.5 14.5 0 1 0 0 29 14.5 14.5 0 0 0 0-29Z"/><path fill="#C36DF8" d="M516.5 314.5a14.5 14.5 0 1 0 0 28.9 14.5 14.5 0 0 0 0-29Z"/><path stroke="#C36DF8" stroke-miterlimit="10" stroke-width="2.9" d="M516.5 314.5a14.5 14.5 0 1 0 0 28.9 14.5 14.5 0 0 0 0-29Z"/><path fill="#C36DF8" d="M248.3 305.7a14.5 14.5 0 1 0 0 28.9 14.5 14.5 0 0 0 0-29Z"/><path stroke="#C36DF8" stroke-miterlimit="10" stroke-width="2.9" d="M248.3 305.7a14.5 14.5 0 1 0 0 28.9 14.5 14.5 0 0 0 0-29Z"/><path fill="#C36DF8" d="M460.8 527.1a14.5 14.5 0 1 0 0 29 14.5 14.5 0 0 0 0-29Z"/><path stroke="#C36DF8" stroke-miterlimit="10" stroke-width="2.9" d="M460.8 527.1a14.5 14.5 0 1 0 0 29 14.5 14.5 0 0 0 0-29Z"/><path fill="#C36DF8" d="M433.5 218.7a14.5 14.5 0 1 0 0 29 14.5 14.5 0 0 0 0-29Z"/><path stroke="#C36DF8" stroke-miterlimit="10" stroke-width="2.9" d="M433.5 218.7a14.5 14.5 0 1 0 0 29 14.5 14.5 0 0 0 0-29Z"/><path fill="#C36DF8" d="M239.8 469.2a14.5 14.5 0 1 0 0 29 14.5 14.5 0 0 0 0-29Z"/><path stroke="#C36DF8" stroke-miterlimit="10" stroke-width="2.9" d="M239.8 469.2a14.5 14.5 0 1 0 0 29 14.5 14.5 0 0 0 0-29Z"/><path fill="#C36DF8" d="M563.6 416.2a14.5 14.5 0 1 0 0 29 14.5 14.5 0 0 0 0-29Z"/><path stroke="#C36DF8" stroke-miterlimit="10" stroke-width="2.9" d="M563.6 416.2a14.5 14.5 0 1 0 0 29 14.5 14.5 0 0 0 0-29Z"/><path fill="#C36DF8" d="M272.8 214.7a14.5 14.5 0 1 0 0 29 14.5 14.5 0 0 0 0-29Z"/><path stroke="#C36DF8" stroke-miterlimit="10" stroke-width="2.9" d="M272.8 214.7a14.5 14.5 0 1 0 0 29 14.5 14.5 0 0 0 0-29Z"/><path fill="#C36DF8" d="M366.8 571.8a14.5 14.5 0 1 0 0 29 14.5 14.5 0 0 0 0-29Z"/><path stroke="#C36DF8" stroke-miterlimit="10" stroke-width="2.9" d="M366.8 571.8a14.5 14.5 0 1 0 0 29 14.5 14.5 0 0 0 0-29Z"/><path fill="#C36DF8" d="M538.2 233.2a14.5 14.5 0 1 0 0 29 14.5 14.5 0 0 0 0-29Z"/><path stroke="#C36DF8" stroke-miterlimit="10" stroke-width="2.9" d="M538.2 233.2a14.5 14.5 0 1 0 0 29 14.5 14.5 0 0 0 0-29Z"/><path fill="#C36DF8" d="M172.5 352.4a14.5 14.5 0 1 0 0 29 14.5 14.5 0 0 0 0-29Z"/><path stroke="#C36DF8" stroke-miterlimit="10" stroke-width="2.9" d="M172.5 352.4a14.5 14.5 0 1 0 0 29 14.5 14.5 0 0 0 0-29Z"/><path fill="#C36DF8" d="M525.4 520.3a14.5 14.5 0 1 0 0 29 14.5 14.5 0 0 0 0-29Z"/><path stroke="#C36DF8" stroke-miterlimit="10" stroke-width="2.9" d="M525.4 520.3a14.5 14.5 0 1 0 0 29 14.5 14.5 0 0 0 0-29Z"/><path fill="#C36DF8" d="M371.2 138.7a14.5 14.5 0 1 0 0 28.9 14.5 14.5 0 0 0 0-29Z"/><path stroke="#C36DF8" stroke-miterlimit="10" stroke-width="2.9" d="M371.2 138.7a14.5 14.5 0 1 0 0 28.9 14.5 14.5 0 0 0 0-29Z"/><path fill="#C36DF8" d="M242.2 548.2a14.5 14.5 0 1 0 0 29 14.5 14.5 0 0 0 0-29Z"/><path stroke="#C36DF8" stroke-miterlimit="10" stroke-width="2.9" d="M242.2 548.2a14.5 14.5 0 1 0 0 29 14.5 14.5 0 0 0 0-29Z"/><path fill="#C36DF8" d="M622 337.7a14.5 14.5 0 1 0 0 29 14.5 14.5 0 0 0 0-29Z"/><path stroke="#C36DF8" stroke-miterlimit="10" stroke-width="2.9" d="M622 337.7a14.5 14.5 0 1 0 0 29 14.5 14.5 0 0 0 0-29Z"/><path fill="#C36DF8" d="M177.8 231a14.5 14.5 0 1 0 0 29 14.5 14.5 0 0 0 0-29Z"/><path stroke="#C36DF8" stroke-miterlimit="10" stroke-width="2.9" d="M177.8 231a14.5 14.5 0 1 0 0 29 14.5 14.5 0 0 0 0-29Z"/><path fill="#C36DF8" d="M439.8 620a14.5 14.5 0 1 0 0 29 14.5 14.5 0 0 0 0-29Z"/><path stroke="#C36DF8" stroke-miterlimit="10" stroke-width="2.9" d="M439.8 620a14.5 14.5 0 1 0 0 29 14.5 14.5 0 0 0 0-29Z"/><path fill="#C36DF8" d="M513.6 151.5a14.5 14.5 0 1 0 0 28.9 14.5 14.5 0 0 0 0-29Z"/><path stroke="#C36DF8" stroke-miterlimit="10" stroke-width="2.9" d="M513.6 151.5a14.5 14.5 0 1 0 0 28.9 14.5 14.5 0 0 0 0-29Z"/><path fill="#C36DF8" d="M139.8 445.9a14.5 14.5 0 1 0 0 29 14.5 14.5 0 0 0 0-29Z"/><path stroke="#C36DF8" stroke-miterlimit="10" stroke-width="2.9" d="M139.8 445.9a14.5 14.5 0 1 0 0 29 14.5 14.5 0 0 0 0-29Z"/><path fill="#C36DF8" d="M626.5 471.6a14.5 14.5 0 1 0 0 28.9 14.5 14.5 0 0 0 0-29Z"/><path stroke="#C36DF8" stroke-miterlimit="10" stroke-width="2.9" d="M626.5 471.6a14.5 14.5 0 1 0 0 28.9 14.5 14.5 0 0 0 0-29Z"/><path fill="#C36DF8" d="M293 118.8a14.5 14.5 0 1 0 0 28.9 14.5 14.5 0 0 0 0-29Z"/><path stroke="#C36DF8" stroke-miterlimit="10" stroke-width="2.9" d="M293 118.8a14.5 14.5 0 1 0 0 28.9 14.5 14.5 0 0 0 0-29Z"/><path fill="#C36DF8" d="M298.7 629.4a14.5 14.5 0 1 0 0 29 14.5 14.5 0 0 0 0-29Z"/><path stroke="#C36DF8" stroke-miterlimit="10" stroke-width="2.9" d="M298.7 629.4a14.5 14.5 0 1 0 0 29 14.5 14.5 0 0 0 0-29Z"/><path fill="#C36DF8" d="M626.6 236.7a14.5 14.5 0 1 0 0 29 14.5 14.5 0 0 0 0-29Z"/><path stroke="#C36DF8" stroke-miterlimit="10" stroke-width="2.9" d="M626.6 236.7a14.5 14.5 0 1 0 0 29 14.5 14.5 0 0 0 0-29Z"/><path fill="#C36DF8" d="M108.7 294.5a14.5 14.5 0 1 0 0 29 14.5 14.5 0 0 0 0-29Z"/><path stroke="#C36DF8" stroke-miterlimit="10" stroke-width="2.9" d="M108.7 294.5a14.5 14.5 0 1 0 0 29 14.5 14.5 0 0 0 0-29Z"/><path fill="#C36DF8" d="M545.5 599.6a14.5 14.5 0 1 0 0 29 14.5 14.5 0 0 0 0-29Z"/><path stroke="#C36DF8" stroke-miterlimit="10" stroke-width="2.9" d="M545.5 599.6a14.5 14.5 0 1 0 0 29 14.5 14.5 0 0 0 0-29Z"/><path fill="#C36DF8" d="M425.6 80.8a14.5 14.5 0 1 0 0 28.9 14.5 14.5 0 0 0 0-29Z"/><path stroke="#C36DF8" stroke-miterlimit="10" stroke-width="2.9" d="M425.6 80.8a14.5 14.5 0 1 0 0 28.9 14.5 14.5 0 0 0 0-29Z"/><path fill="#C36DF8" d="M156.2 549.8a14.5 14.5 0 1 0 0 29 14.5 14.5 0 0 0 0-29Z"/><path stroke="#C36DF8" stroke-miterlimit="10" stroke-width="2.9" d="M156.2 549.8a14.5 14.5 0 1 0 0 29 14.5 14.5 0 0 0 0-29Z"/><path fill="#C36DF8" d="M166.9 150.4a14.5 14.5 0 1 0 0 29 14.5 14.5 0 0 0 0-29Z"/><path stroke="#C36DF8" stroke-miterlimit="10" stroke-width="2.9" d="M166.9 150.4a14.5 14.5 0 1 0 0 29 14.5 14.5 0 0 0 0-29Z"/><path fill="#C36DF8" d="M383.3 674.8a14.5 14.5 0 1 0 0 29 14.5 14.5 0 0 0 0-29Z"/><path stroke="#C36DF8" stroke-miterlimit="10" stroke-width="2.9" d="M383.3 674.8a14.5 14.5 0 1 0 0 29 14.5 14.5 0 0 0 0-29Z"/><path fill="#C36DF8" d="M589.8 140.4a14.5 14.5 0 1 0 0 29 14.5 14.5 0 0 0 0-29Z"/><path stroke="#C36DF8" stroke-miterlimit="10" stroke-width="2.9" d="M589.8 140.4a14.5 14.5 0 1 0 0 29 14.5 14.5 0 0 0 0-29Z"/><path fill="#C36DF8" d="M65.3 391.8a14.5 14.5 0 1 0 0 29 14.5 14.5 0 0 0 0-29Z"/><path stroke="#C36DF8" stroke-miterlimit="10" stroke-width="2.9" d="M65.3 391.8a14.5 14.5 0 1 0 0 29 14.5 14.5 0 0 0 0-29Z"/><path fill="#C36DF8" d="M644.4 572.1a14.5 14.5 0 1 0 0 29 14.5 14.5 0 0 0 0-29Z"/><path stroke="#C36DF8" stroke-miterlimit="10" stroke-width="2.9" d="M644.4 572.1a14.5 14.5 0 1 0 0 29 14.5 14.5 0 0 0 0-29Z"/><path fill="#C36DF8" d="M333.2 58.2a14.5 14.5 0 1 0 0 29 14.5 14.5 0 0 0 0-29Z"/><path stroke="#C36DF8" stroke-miterlimit="10" stroke-width="2.9" d="M333.2 58.2a14.5 14.5 0 1 0 0 29 14.5 14.5 0 0 0 0-29Z"/><path fill="#C36DF8" d="M211.3 653.7a14.5 14.5 0 1 0 0 28.9 14.5 14.5 0 0 0 0-29Z"/><path stroke="#C36DF8" stroke-miterlimit="10" stroke-width="2.9" d="M211.3 653.7a14.5 14.5 0 1 0 0 28.9 14.5 14.5 0 0 0 0-29Z"/><path fill="#C36DF8" d="M90.6 222a14.5 14.5 0 1 0 0 29 14.5 14.5 0 0 0 0-29Z"/><path stroke="#C36DF8" stroke-miterlimit="10" stroke-width="2.9" d="M90.6 222a14.5 14.5 0 1 0 0 29 14.5 14.5 0 0 0 0-29Z"/><path fill="#C36DF8" d="M505 687.7a14.5 14.5 0 1 0 0 28.9 14.5 14.5 0 0 0 0-29Z"/><path stroke="#C36DF8" stroke-miterlimit="10" stroke-width="2.9" d="M505 687.7a14.5 14.5 0 1 0 0 28.9 14.5 14.5 0 0 0 0-29Z"/><path fill="#C36DF8" d="M516.6 51.4a14.5 14.5 0 1 0 0 29 14.5 14.5 0 0 0 0-29Z"/><path stroke="#C36DF8" stroke-miterlimit="10" stroke-width="2.9" d="M516.6 51.4a14.5 14.5 0 1 0 0 29 14.5 14.5 0 0 0 0-29Z"/><path fill="#C36DF8" d="M70.7 505.2a14.5 14.5 0 1 0 0 29 14.5 14.5 0 0 0 0-29Z"/><path stroke="#C36DF8" stroke-miterlimit="10" stroke-width="2.9" d="M70.7 505.2a14.5 14.5 0 1 0 0 29 14.5 14.5 0 0 0 0-29Z"/><path fill="#C36DF8" d="M208.3 65.6a14.5 14.5 0 1 0 0 29 14.5 14.5 0 0 0 0-29Z"/><path stroke="#C36DF8" stroke-miterlimit="10" stroke-width="2.9" d="M208.3 65.6a14.5 14.5 0 1 0 0 29 14.5 14.5 0 0 0 0-29Z"/><path fill="#C36DF8" d="M303 726.3a14.5 14.5 0 1 0 0 29 14.5 14.5 0 0 0 0-29Z"/><path stroke="#C36DF8" stroke-miterlimit="10" stroke-width="2.9" d="M303 726.3a14.5 14.5 0 1 0 0 29 14.5 14.5 0 0 0 0-29Z"/></g></svg>