<svg width="673" height="403" viewBox="0 0 673 403" fill="none" xmlns="http://www.w3.org/2000/svg">
<path d="M194.285 112.061C49.08 219.419 -8.20616 374.089 83.8642 463.354C190.843 567.073 442.368 536.466 618.462 387.526M194.285 112.061C332.741 9.69398 526.889 -31.2891 646.778 22.1507C784.149 83.3825 784.02 247.497 618.462 387.526M194.285 112.061C34.382 185.039 -38.5301 309.805 53.4958 396.35C160.823 497.284 429.122 496.264 618.462 387.526M194.285 112.061C343.357 44.0267 542.633 33.0989 660.995 89.6719C796.218 154.304 791.344 288.239 618.462 387.526M194.285 112.061C28.3879 145.799 -51.8976 234.062 41.0197 316.493C149.739 412.945 426.331 448.7 618.462 387.526M194.285 112.061C346.07 81.1935 544.332 101.566 660.726 161.618C793.389 230.064 789.671 333.012 618.462 387.526M194.285 112.061C31.7186 103.967 -46.3978 151.403 48.4381 228.567C159.682 319.082 434.574 396.524 618.462 387.526M194.285 112.061C340.957 119.365 532.586 171.064 646.721 234.823C776.589 307.371 779.377 379.651 618.462 387.526M194.285 112.061C44.3694 62.101 -21.5946 67.4222 76.1545 138.583C190.995 222.186 453.629 343.009 618.462 387.526M194.285 112.061C328.408 156.759 508.342 238.791 620.044 306.39C747.017 383.231 761.131 426.056 618.462 387.526M194.285 112.061C65.6591 22.849 21.2168 -11.8006 122.69 53.1725C241.96 129.54 482.421 291.681 618.462 387.526M194.285 112.061C309.081 191.682 472.803 302.16 581.99 373.656C706.069 454.903 735.839 470.222 618.462 387.526M194.285 112.061C94.2745 -11.2851 79.0423 -80.4346 184.724 -21.2488C308.853 48.2685 519.084 245.962 618.462 387.526M194.285 112.061C283.875 222.557 427.402 358.772 534.053 434.138C655.302 519.82 704.622 510.261 618.462 387.526M194.285 112.061C128.364 -38.179 147.524 -133.639 257.484 -79.3254C386.409 -15.6454 561.137 208.828 618.462 387.526M194.285 112.061C253.911 247.956 373.802 406.369 477.941 485.484C596.472 575.533 668.79 544.414 618.462 387.526M194.285 112.061C165.726 -56.2667 221.528 -168.117 335.411 -117.411C468.578 -58.1183 605.75 182.519 618.462 387.526M194.285 112.061C220.509 266.629 313.934 442.829 415.621 525.454C531.575 619.669 629.843 571.068 618.462 387.526M194.285 112.061C204.01 -64.6478 295.791 -182.384 412.897 -133.857C549.369 -77.3059 650.031 168.371 618.462 387.526M194.285 112.061C185.177 277.547 250.048 466.187 349.382 551.925C462.932 649.934 589.468 588.806 618.462 387.526M194.285 112.061C240.921 -63.1124 365.528 -176.682 484.928 -128.933C623.546 -73.4964 691.299 166.775 618.462 387.526M194.285 112.061C149.585 279.959 184.764 474.712 281.896 562.978C393.266 664.184 549.524 596.461 618.462 387.526M194.285 112.061C274.392 -52.0905 426.823 -152.68 547.506 -104.456C687.06 -48.6903 727.281 177.264 618.462 387.526M194.285 112.061C115.525 273.452 121.101 467.046 216.258 557.033C325.748 660.575 512.01 593.215 618.462 387.526M194.285 112.061C302.7 -32.5447 476.813 -113.031 597.802 -63.2945C737.165 -6.0041 756.23 198.668 618.462 387.526M194.285 112.061C84.844 258.035 62.4415 442.414 155.967 533.08C263.996 637.799 479.003 578.701 618.462 387.526M194.285 112.061C324.539 -5.84001 513.685 -60.9385 634.122 -8.88919C772.348 50.8485 776.961 229.318 618.462 387.526M194.285 112.061C59.3529 234.197 12.4188 400.879 104.812 490.96C211.957 595.421 452.546 553.138 618.462 387.526M194.285 112.061C339.029 26.3916 536.538 0.195115 655.729 55.1499C792.089 118.021 788.818 267.228 618.462 387.526M194.285 112.061C40.7037 202.962 -25.3219 343.612 66.6183 431.699C173.65 534.244 434.502 517.43 618.462 387.526M194.285 112.061C345.704 62.3708 545.21 67.0185 662.633 125.296C796.615 191.792 791.615 310.257 618.462 387.526M194.285 112.061C30.2444 165.894 -47.4831 273.111 44.8636 357.763C152.748 456.659 426.366 473.245 618.462 387.526M194.285 112.061C344.474 100.267 540.087 136.367 655.38 198.25C786.665 268.717 785.568 356.233 618.462 387.526M194.285 112.061C28.8723 125.052 -51.5733 193.265 42.1749 273.186C152.015 366.826 429.067 422.993 618.462 387.526M194.285 112.061C335.576 138.268 521.957 205.315 634.89 270.983C763.317 345.658 771.196 403.01 618.462 387.526M194.285 112.061C36.9054 82.8713 -36.3709 109.2 59.8062 183.423C172.725 270.566 442.798 369.715 618.462 387.526M194.285 112.061C319.54 174.631 491.9 271.174 602.351 340.72C727.872 419.755 749.303 448.541 618.462 387.526M194.285 112.061C54.0027 41.9855 -2.28873 26.8375 97.2376 94.8897C214.21 174.871 466.908 316.851 618.462 387.526M194.285 112.061C297.148 207.719 451.237 331.455 559.155 404.894C681.807 488.361 720.896 490.872 618.462 387.526M194.285 112.061C79.1567 4.99865 48.5002 -47.7744 152.041 14.2195C273.716 87.0711 499.913 267.92 618.462 387.526M194.285 112.061C269.41 236.024 401.513 383.833 506.903 461.096C626.777 548.978 687.194 528.179 618.462 387.526M194.285 112.061C110.766 -25.7495 112.261 -109.212 220.101 -52.6036C346.668 13.8361 539.609 226.162 618.462 387.526M194.285 112.061C237.549 258.204 344.519 426.118 447.422 507.027C564.645 599.194 649.606 558.772 618.462 387.526M194.285 112.061C146.782 -48.3962 184.169 -153.355 296.16 -101.018C427.302 -39.7305 583.306 194.215 618.462 387.526M194.285 112.061C202.983 273.112 282.338 456.261 382.834 540.503C497.562 636.674 609.721 581.131 618.462 387.526M194.285 112.061C184.9 -61.6995 258.943 -177.8 374.542 -128.364C509.497 -70.6509 628.107 173.879 618.462 387.526M194.285 112.061C167.304 279.851 217.402 472.399 315.611 559.488C428.04 659.185 569.32 593.954 618.462 387.526M194.285 112.061C222.773 -65.1067 331.494 -181.953 449.871 -133.984C587.569 -78.1864 671.195 166.015 618.462 387.526M194.285 112.061C132.249 277.83 152.526 472.967 248.636 562.21C359.022 664.711 530.334 596.236 618.462 387.526M194.285 112.061C258.203 -58.7383 397.435 -166.821 517.604 -118.977C656.839 -63.5436 710.072 170.568 618.462 387.526M194.285 112.061C99.6468 266.839 90.9226 456.87 185.212 547.34C293.909 651.637 494.813 587.368 618.462 387.526M194.285 112.061C289.283 -43.3057 453.368 -134.619 574.32 -85.7536C713.909 -29.3577 742.722 186.696 618.462 387.526M194.285 112.061C71.3411 247.117 36.1194 423.715 129.007 514.256C236.508 619.045 464.833 567.261 618.462 387.526M194.285 112.061C314.493 -19.9902 496.964 -88.3284 617.775 -37.5221C756.676 20.891 767.676 212.956 618.462 387.526" stroke="#C36DF8" stroke-width="2.11644" stroke-miterlimit="10"/>
</svg>
