<svg width="185" height="21" viewBox="0 0 185 21" fill="none" xmlns="http://www.w3.org/2000/svg">
<path d="M32.3484 20.1946C29.5862 20.1946 28.2185 18.5904 28.2185 15.9124V8.83914H25.7195V6.08093H28.2185V2.54613L31.507 1.71484V6.08093H34.9531V8.84279H31.507V15.6189C31.507 16.6926 31.9814 17.1466 33.0322 17.1466C33.7143 17.1466 34.2675 17.1192 35.1643 17.0117V19.8264C34.2424 20.0634 33.3222 20.1964 32.3484 20.1964V20.1946Z" fill="#0C0C27"/>
<path d="M45.1464 20.0049V11.4076C45.1464 9.79968 44.6219 8.80979 42.8854 8.80979C40.9127 8.80979 40.0713 10.9518 40.0713 12.6654V20.0049H36.7828V0.671875H40.0713V7.55188C40.8626 6.37422 42.3842 5.7307 43.8056 5.7307C46.7253 5.7307 48.4349 7.84539 48.4349 10.713V20.0049H45.1464Z" fill="#0C0C27"/>
<path d="M62.7059 14.0933H53.5546C53.5278 15.1634 53.8966 16.1807 54.5536 16.8242C55.0243 17.28 55.6831 17.6828 56.58 17.6828C57.5252 17.6828 58.1034 17.4951 58.5796 17.012C58.8642 16.7166 59.1041 16.3429 59.2366 15.8343H62.3926C62.3139 16.6656 61.7624 17.7667 61.2362 18.4084C60.0815 19.8012 58.3701 20.3627 56.6355 20.3627C54.7666 20.3627 53.3971 19.6936 52.3213 18.6472C50.9536 17.3091 50.2161 15.3549 50.2161 13.0798C50.2161 10.8047 50.873 8.87409 52.1869 7.50686C53.2127 6.43858 54.6842 5.74219 56.5531 5.74219C58.5814 5.74219 60.4181 6.57348 61.5494 8.31261C62.5501 9.84028 62.7846 11.419 62.7345 13.1618C62.731 13.1563 62.7059 13.7998 62.7059 14.0952V14.0933ZM58.6029 9.21864C58.1553 8.73554 57.4733 8.41287 56.5245 8.41287C55.5256 8.41287 54.7111 8.8431 54.2349 9.48297C53.7659 10.0973 53.5546 10.7408 53.5278 11.6505H59.4442C59.4174 10.6096 59.1274 9.80382 58.6029 9.21681V9.21864Z" fill="#0C0C27"/>
<path d="M69.7947 4.22906V20.0053H66.2323V4.22906H60.7097V0.84375H75.3139V4.22906H69.7929H69.7947Z" fill="#0C0C27"/>
<path d="M80.7727 9.052C78.4618 9.052 77.2499 10.7401 77.2499 12.9879V20.0046H73.9379V6.07865H76.7234L77.0136 8.16967C77.6437 6.56175 79.2742 5.89453 80.8784 5.89453C81.2204 5.89453 81.5639 5.92188 81.9037 5.97474V9.18873C81.5369 9.10487 81.1431 9.052 80.7741 9.052H80.7727Z" fill="#0C0C27"/>
<path d="M93.9223 20.2216C92.5025 20.2216 91.7128 19.3119 91.6092 18.2673C90.9792 19.3921 89.3998 20.3546 87.4542 20.3546C84.1925 20.3546 82.5117 18.2673 82.5117 15.9885C82.5117 13.3379 84.536 11.8102 87.1392 11.6261L91.1651 11.3289V10.4721C91.1651 9.15775 90.7138 8.27724 88.8485 8.27724C87.3237 8.27724 86.4304 8.9718 86.3495 10.257H83.1687C83.3532 7.1196 85.7982 5.73047 88.8507 5.73047C91.1936 5.73047 93.1901 6.47972 93.9777 8.56892C94.3197 9.4549 94.3751 10.4448 94.3751 11.3818V16.55C94.3751 17.1935 94.5858 17.436 95.1356 17.436C95.3435 17.436 95.5579 17.3831 95.5579 17.3831V19.846C95 20.0866 94.7112 20.2216 93.9223 20.2216ZM91.1637 13.8192L87.689 14.0871C86.69 14.1674 85.718 14.7854 85.718 15.9083C85.718 17.0313 86.6375 17.6475 87.6657 17.6475C89.7184 17.6475 91.1651 16.5227 91.1651 14.459V13.8173L91.1637 13.8192Z" fill="#0C0C27"/>
<path d="M106.268 20.0085L106.06 18.4826C105.244 19.7678 103.717 20.3311 102.22 20.3311C100.853 20.3311 99.723 19.848 98.8793 19.1535C97.2452 17.788 96.4576 15.6971 96.4576 13.0738C96.4576 10.4505 97.2722 8.22457 98.9027 6.85732C99.7427 6.16276 100.85 5.73253 102.243 5.73253C103.979 5.73253 105.242 6.32318 105.822 7.04509V0.671875H109.109V20.0085H106.268ZM102.877 8.54725C101.852 8.54725 101.137 9.0267 100.668 9.64469C99.9826 10.5544 99.8018 11.8159 99.8018 13.0209C99.8018 14.2259 99.9862 15.5111 100.668 16.4208C101.141 17.0351 101.853 17.5182 102.877 17.5182C105.455 17.5182 105.981 15.028 105.981 13.0209C105.981 11.0138 105.455 8.54725 102.877 8.54725Z" fill="#0C0C27"/>
<path d="M123.142 14.0894H113.99C113.964 15.1595 114.332 16.1768 114.989 16.8203C115.462 17.276 116.121 17.6789 117.014 17.6789C117.963 17.6789 118.539 17.4912 119.014 17.0081C119.303 16.7127 119.54 16.339 119.671 15.8304H122.827C122.748 16.6617 122.195 17.7628 121.67 18.4045C120.514 19.7973 118.804 20.3587 117.068 20.3587C115.202 20.3587 113.833 19.6915 112.754 18.6433C111.386 17.3052 110.649 15.351 110.649 13.0759C110.649 10.8007 111.306 8.87018 112.62 7.50295C113.645 6.43467 115.116 5.73828 116.985 5.73828C119.012 5.73828 120.85 6.56957 121.983 8.3087C122.982 9.83638 123.219 11.4151 123.167 13.1579C123.167 13.1524 123.143 13.7959 123.143 14.0913L123.142 14.0894ZM119.037 9.21291C118.59 8.72981 117.908 8.40714 116.958 8.40714C115.96 8.40714 115.146 8.83737 114.671 9.47724C114.196 10.0916 113.989 10.7351 113.96 11.6448H119.878C119.852 10.6039 119.565 9.79809 119.037 9.21109V9.21291Z" fill="#0C0C27"/>
<path d="M137.311 17.9717C136.075 19.2842 134.206 20.0061 132.074 20.0061H124.816V1.01953H132.074C134.206 1.01953 136.073 1.74144 137.311 3.054C139.229 5.06295 139.494 7.87584 139.494 10.501C139.494 13.1261 139.228 15.9645 137.311 17.9735V17.9717ZM134.704 5.19603C134.074 4.55433 133.152 4.12228 132.074 4.12228H128.209V16.8979H132.074C133.152 16.8979 134.074 16.4713 134.704 15.8278C136.018 14.4897 136.045 12.2401 136.045 10.4992C136.045 8.7582 136.018 6.53229 134.704 5.19603Z" fill="#0C0C27"/>
<path d="M153.052 14.0933H143.897C143.87 15.1634 144.239 16.1807 144.899 16.8242C145.373 17.28 146.026 17.6828 146.921 17.6828C147.866 17.6828 148.446 17.4951 148.921 17.012C149.211 16.7166 149.445 16.3429 149.578 15.8343H152.732C152.653 16.6656 152.1 17.7667 151.576 18.4084C150.419 19.8012 148.709 20.3627 146.973 20.3627C145.104 20.3627 143.74 19.6936 142.661 18.6472C141.293 17.3073 140.557 15.3549 140.557 13.0798C140.557 10.8047 141.216 8.87409 142.528 7.50686C143.554 6.43858 145.029 5.74219 146.896 5.74219C148.922 5.74219 150.761 6.57348 151.895 8.31261C152.893 9.84028 153.129 11.419 153.077 13.1618C153.077 13.1563 153.05 13.7998 153.05 14.0952L153.052 14.0933ZM148.949 9.21864C148.502 8.73554 147.816 8.41287 146.871 8.41287C145.872 8.41287 145.056 8.8431 144.581 9.48297C144.11 10.0973 143.896 10.7408 143.873 11.6505H149.789C149.766 10.6096 149.476 9.80382 148.951 9.21681L148.949 9.21864Z" fill="#0C0C27"/>
<path d="M167.078 0.671875V20.0085H170.363V16.3406L172.547 13.9306L176.387 20.0085H180.2L174.781 11.464L179.672 6.08072H175.545L170.361 11.7339V0.671875H167.077H167.078Z" fill="#0C0C27"/>
<path d="M161.877 11.7574C160.532 11.5422 160.19 11.5185 158.957 11.3545C158.219 11.2469 157.382 10.9516 157.382 9.96534C157.382 9.23796 157.856 8.73117 158.433 8.48871C158.934 8.27724 159.381 8.27724 159.852 8.27724C160.534 8.27724 161.248 8.51788 161.64 8.92076C161.957 9.26713 162.193 9.69554 162.193 10.2333H165.324C165.324 9.21609 164.854 8.16968 164.115 7.36388C163.116 6.26643 161.457 5.73047 159.827 5.73047C158.196 5.73047 156.672 6.24091 155.672 7.1196C154.857 7.84697 154.281 8.8369 154.281 10.257C154.281 12.0235 155.541 13.5785 157.412 13.9796C158.619 14.2476 159.987 14.326 161.196 14.5137C162.039 14.6505 162.566 15.1846 162.566 15.9867C162.566 17.5144 160.881 17.7569 159.779 17.7569C158.834 17.7569 158.226 17.5673 157.702 17.1389C157.349 16.849 157.083 16.3331 156.998 15.8099H153.905C154 16.993 154.605 18.0285 155.334 18.7431C156.465 19.8405 158.017 20.351 159.752 20.351C161.621 20.351 163.326 19.8697 164.431 18.7431C165.142 18.0212 165.615 17.0277 165.615 15.6896C165.609 13.4965 164.034 12.1037 161.874 11.7555L161.877 11.7574Z" fill="#0C0C27"/>
<path d="M182.744 6.03663C181.732 6.03663 180.982 5.23451 180.982 4.21727C180.982 3.20004 181.732 2.39062 182.744 2.39062C183.755 2.39062 184.501 3.19639 184.501 4.20998C184.505 5.22722 183.755 6.03663 182.744 6.03663ZM182.744 2.71147C181.881 2.71147 181.313 3.35317 181.313 4.21727C181.313 5.08138 181.884 5.71943 182.744 5.71943C183.603 5.71943 184.174 5.08138 184.174 4.21363C184.174 3.34588 183.605 2.71147 182.744 2.71147ZM183.139 5.13424L182.828 4.43786H182.466V5.13424H182.137V3.23285H182.823C183.177 3.23285 183.483 3.4425 183.483 3.82897C183.483 4.07508 183.379 4.27196 183.148 4.3777L183.492 5.13424H183.141H183.139ZM182.821 3.54276H182.455V4.12795H182.821C183.014 4.12795 183.143 4.03862 183.143 3.83262C183.143 3.62662 182.994 3.54094 182.821 3.54094V3.54276Z" fill="#0C0C27"/>
<path d="M5.93211 14.9267V19.1798C2.84947 17.5518 0.744263 14.2722 0.744263 10.4913C0.744263 9.10585 1.02711 7.78782 1.53909 6.59375H5.46667C4.63963 7.6675 4.14554 9.02017 4.14554 10.4913C4.14554 12.2195 4.82759 13.7855 5.93211 14.9267Z" fill="#0C0C27"/>
<path d="M19.9527 10.4905C19.9527 15.8939 15.6528 20.2727 10.3485 20.2727C9.77036 20.2727 9.2029 20.2199 8.65155 20.1196V16.5702C9.19036 16.7252 9.75964 16.809 10.3485 16.809C13.7731 16.809 16.5514 13.9797 16.5514 10.4905C16.5514 8.75501 15.864 7.18176 14.7505 6.04056V1.79297C17.8404 3.41909 19.9527 6.70414 19.9527 10.4905Z" fill="#0C0C27"/>
<path d="M4.97705 0.761719V4.22178H8.65398V11.7016H12.0625V0.761719H4.97705Z" fill="#0C0C27"/>
</svg>
